{
  "source": "C:\\Users\\Peter\\Desktop\\stuff\\MIUN\\quantitative_research\\video_compression\\videos\\BVI-HD\\BVI-HD_CDVL_videos\\ORIG\\RockWave_1920x1080_30fps.mp4",
  "output": "C:\\Users\\Peter\\Desktop\\stuff\\MIUN\\quantitative_research\\video_compression\\compressed_videos\\BVI-HD\\hevc\\8\\RockWave_1920x1080_30fps_hevc.mp4",
  "codec": "hevc",
  "ok": "Input #0, mov,mp4,m4a,3gp,3g2,mj2, from 'C:\\Users\\Peter\\Desktop\\stuff\\MIUN\\quantitative_research\\video_compression\\videos\\BVI-HD\\BVI-HD_CDVL_videos\\ORIG\\RockWave_1920x1080_30fps.mp4':\n  Metadata:\n    major_brand     : isom\n    minor_version   : 512\n    compatible_brands: isomiso2avc1mp41\n    encoder         : Lavf54.28.101\n  Duration: 00:00:05.00, start: 0.000000, bitrate: 303557 kb/s\n  Stream #0:0[0x1](und): Video: h264 (High 4:4:4 Predictive) (avc1 / 0x31637661), yuv420p(progressive), 1920x1080, 303553 kb/s, 30 fps, 30 tbr, 30 tbn (default)\n    Metadata:\n      handler_name    : VideoHandler\n      vendor_id       : [0][0][0][0]\n[out#0/mp4 @ 0000028cd435ab00] Codec AVOption b:a (set bitrate (in bits/s)) has not been used for any stream. The most likely reason is either wrong type (e.g. a video option with no video streams) or that it is a private option of some decoder which was not actually used for any stream.\nStream mapping:\n  Stream #0:0 -> #0:0 (h264 (native) -> hevc (libx265))\nPress [q] to stop, [?] for help\n[libx265 @ 0000028cd4e60bc0] Unknown option: \"aq-mode.\nx265 [info]: HEVC encoder version 4.1+190-8f11c33ac\nx265 [info]: build info [Windows][GCC 15.1.0][64 bit] 10bit\nx265 [info]: using cpu capabilities: MMX2 SSE2Fast LZCNT SSSE3 SSE4.2 AVX FMA3 BMI2 AVX2\nx265 [info]: Main 10 profile, Level-4 (Main tier)\nx265 [info]: Thread pool created using 12 threads\nx265 [info]: Slices                              : 1\nx265 [info]: frame threads / pool features       : 3 / wpp(17 rows)\nx265 [info]: Coding QT: max CU size, min CU size : 64 / 8\nx265 [info]: Residual QT: max TU size, max depth : 32 / 1 inter / 1 intra\nx265 [info]: ME / range / subpel / merge         : star / 57 / 3 / 3\nx265 [info]: Keyframe min / max / scenecut / bias  : 25 / 250 / 40 / 5.00 \nx265 [info]: Lookahead / bframes / badapt        : 25 / 4 / 2\nx265 [info]: b-pyramid / weightp / weightb       : 1 / 1 / 0\nx265 [info]: References / ref-limit  cu / depth  : 4 / on / on\nx265 [info]: AQ: mode / str / qg-size / cu-tree  : 2 / 1.0 / 32 / 1\nx265 [info]: Rate Control / qCompress            : ABR-8000 kbps / 0.60\nx265 [info]: VBV/HRD buffer / max-rate / init    : 8000 / 8000 / 0.750\nx265 [info]: tools: rect limit-modes rd=4 psy-rd=2.00 rdoq=2 psy-rdoq=1.00\nx265 [info]: tools: rskip mode=1 signhide tmvp strong-intra-smoothing lslices=4\nx265 [info]: tools: deblock sao dhdr10-info\nOutput #0, mp4, to 'C:\\Users\\Peter\\Desktop\\stuff\\MIUN\\quantitative_research\\video_compression\\compressed_videos\\BVI-HD\\hevc\\8\\RockWave_1920x1080_30fps_hevc.mp4':\n  Metadata:\n    major_brand     : isom\n    minor_version   : 512\n    compatible_brands: isomiso2avc1mp41\n    encoder         : Lavf62.3.100\n  Stream #0:0(und): Video: hevc (hev1 / 0x31766568), yuv420p10le(tv, progressive), 1920x1080, q=2-31, 8000 kb/s, 30 fps, 15360 tbn (default)\n    Metadata:\n      encoder         : Lavc62.11.100 libx265\n      handler_name    : VideoHandler\n      vendor_id       : [0][0][0][0]\n    Side data:\n      cpb: bitrate max/min/avg: 8000000/0/8000000 buffer size: 8000000 vbv_delay: N/A\nframe=    0 fps=0.0 q=0.0 size=       0KiB time=N/A bitrate=N/A speed=N/A elapsed=0:00:01.31    \nframe=    0 fps=0.0 q=0.0 size=       0KiB time=N/A bitrate=N/A speed=N/A elapsed=0:00:01.92    \nframe=    0 fps=0.0 q=0.0 size=       0KiB time=N/A bitrate=N/A speed=N/A elapsed=0:00:02.48    \nframe=    0 fps=0.0 q=0.0 size=       0KiB time=N/A bitrate=N/A speed=N/A elapsed=0:00:03.00    \nframe=    0 fps=0.0 q=0.0 size=       0KiB time=N/A bitrate=N/A speed=N/A elapsed=0:00:03.53    \nframe=    0 fps=0.0 q=0.0 size=       0KiB time=N/A bitrate=N/A speed=N/A elapsed=0:00:04.05    \nframe=    0 fps=0.0 q=0.0 size=       0KiB time=N/A bitrate=N/A speed=N/A elapsed=0:00:04.59    \nframe=    0 fps=0.0 q=0.0 size=       0KiB time=N/A bitrate=N/A speed=N/A elapsed=0:00:05.23    \nframe=    0 fps=0.0 q=0.0 size=       0KiB time=N/A bitrate=N/A speed=N/A elapsed=0:00:05.77    \nframe=    0 fps=0.0 q=0.0 size=       0KiB time=N/A bitrate=N/A speed=N/A elapsed=0:00:06.29    \nframe=    0 fps=0.0 q=0.0 size=       0KiB time=N/A bitrate=N/A speed=N/A elapsed=0:00:06.82    \nframe=    0 fps=0.0 q=0.0 size=       0KiB time=N/A bitrate=N/A speed=N/A elapsed=0:00:07.35    \nframe=    0 fps=0.0 q=0.0 size=       0KiB time=N/A bitrate=N/A speed=N/A elapsed=0:00:07.94    \nframe=    0 fps=0.0 q=0.0 size=       0KiB time=N/A bitrate=N/A speed=N/A elapsed=0:00:08.47    \nframe=    0 fps=0.0 q=0.0 size=       0KiB time=N/A bitrate=N/A speed=N/A elapsed=0:00:09.04    \nframe=    0 fps=0.0 q=0.0 size=       0KiB time=N/A bitrate=N/A speed=N/A elapsed=0:00:09.58    \nframe=    0 fps=0.0 q=0.0 size=       0KiB time=N/A bitrate=N/A speed=N/A elapsed=0:00:10.11    \nframe=    0 fps=0.0 q=0.0 size=       0KiB time=N/A bitrate=N/A speed=N/A elapsed=0:00:10.64    \nframe=    0 fps=0.0 q=0.0 size=       0KiB time=N/A bitrate=N/A speed=N/A elapsed=0:00:11.19    \nframe=    0 fps=0.0 q=0.0 size=       0KiB time=N/A bitrate=N/A speed=N/A elapsed=0:00:11.76    \nframe=    0 fps=0.0 q=0.0 size=       0KiB time=N/A bitrate=N/A speed=N/A elapsed=0:00:12.32    \nframe=    0 fps=0.0 q=0.0 size=       0KiB time=N/A bitrate=N/A speed=N/A elapsed=0:00:12.91    \nframe=    0 fps=0.0 q=0.0 size=       0KiB time=N/A bitrate=N/A speed=N/A elapsed=0:00:13.56    \nframe=    0 fps=0.0 q=0.0 size=       0KiB time=N/A bitrate=N/A speed=N/A elapsed=0:00:14.29    \nframe=    0 fps=0.0 q=0.0 size=       0KiB time=N/A bitrate=N/A speed=N/A elapsed=0:00:14.91    \nframe=    0 fps=0.0 q=0.0 size=       0KiB time=N/A bitrate=N/A speed=N/A elapsed=0:00:15.49    \nframe=    0 fps=0.0 q=0.0 size=       0KiB time=N/A bitrate=N/A speed=N/A elapsed=0:00:16.00    \nframe=    0 fps=0.0 q=0.0 size=       0KiB time=N/A bitrate=N/A speed=N/A elapsed=0:00:16.54    \nframe=    1 fps=0.1 q=33.2 size=       0KiB time=-00:00:00.03 bitrate=N/A speed=N/A elapsed=0:00:17.08    \nframe=    1 fps=0.1 q=33.2 size=       0KiB time=-00:00:00.03 bitrate=N/A speed=N/A elapsed=0:00:17.60    \nframe=    1 fps=0.1 q=33.2 size=       0KiB time=-00:00:00.03 bitrate=N/A speed=N/A elapsed=0:00:18.17    \nframe=    1 fps=0.1 q=33.2 size=       0KiB time=-00:00:00.03 bitrate=N/A speed=N/A elapsed=0:00:18.79    \nframe=    1 fps=0.1 q=33.2 size=       0KiB time=-00:00:00.03 bitrate=N/A speed=N/A elapsed=0:00:19.41    \nframe=    1 fps=0.0 q=33.2 size=       0KiB time=-00:00:00.03 bitrate=N/A speed=N/A elapsed=0:00:20.00    \nframe=    1 fps=0.0 q=33.2 size=       0KiB time=-00:00:00.03 bitrate=N/A speed=N/A elapsed=0:00:20.57    \nframe=    1 fps=0.0 q=33.2 size=       0KiB time=-00:00:00.03 bitrate=N/A speed=N/A elapsed=0:00:21.20    \nframe=    1 fps=0.0 q=33.2 size=       0KiB time=-00:00:00.03 bitrate=N/A speed=N/A elapsed=0:00:21.82    \nframe=    1 fps=0.0 q=33.2 size=       0KiB time=-00:00:00.03 bitrate=N/A speed=N/A elapsed=0:00:22.42    \nframe=    2 fps=0.1 q=36.6 size=       0KiB time=00:00:00.00 bitrate=N/A speed=   0x elapsed=0:00:23.03    \nframe=    2 fps=0.1 q=36.6 size=       0KiB time=00:00:00.00 bitrate=N/A speed=   0x elapsed=0:00:23.65    \nframe=    2 fps=0.1 q=36.6 size=       0KiB time=00:00:00.00 bitrate=N/A speed=   0x elapsed=0:00:24.24    \nframe=    3 fps=0.1 q=39.8 size=       0KiB time=00:00:00.03 bitrate=  10.6kbits/s speed=0.00134x elapsed=0:00:24.79    \nframe=    3 fps=0.1 q=39.8 size=       0KiB time=00:00:00.03 bitrate=  10.6kbits/s speed=0.00131x elapsed=0:00:25.35    \nframe=    3 fps=0.1 q=39.8 size=       0KiB time=00:00:00.03 bitrate=  10.6kbits/s speed=0.00129x elapsed=0:00:25.92    \nframe=    3 fps=0.1 q=39.8 size=       0KiB time=00:00:00.03 bitrate=  10.6kbits/s speed=0.00126x elapsed=0:00:26.51    \nframe=    3 fps=0.1 q=39.8 size=       0KiB time=00:00:00.03 bitrate=  10.6kbits/s speed=0.00123x elapsed=0:00:27.03    \nframe=    3 fps=0.1 q=39.8 size=       0KiB time=00:00:00.03 bitrate=  10.6kbits/s speed=0.00121x elapsed=0:00:27.59    \nframe=    3 fps=0.1 q=39.8 size=       0KiB time=00:00:00.03 bitrate=  10.6kbits/s speed=0.00118x elapsed=0:00:28.18    \nframe=    4 fps=0.1 q=42.2 size=       0KiB time=00:00:00.06 bitrate=   5.3kbits/s speed=0.00232x elapsed=0:00:28.72    \nframe=    4 fps=0.1 q=42.2 size=       0KiB time=00:00:00.06 bitrate=   5.3kbits/s speed=0.00228x elapsed=0:00:29.28    \nframe=    4 fps=0.1 q=42.2 size=       0KiB time=00:00:00.06 bitrate=   5.3kbits/s speed=0.00223x elapsed=0:00:29.87    \nframe=    4 fps=0.1 q=42.2 size=       0KiB time=00:00:00.06 bitrate=   5.3kbits/s speed=0.00219x elapsed=0:00:30.46    \nframe=    4 fps=0.1 q=42.2 size=       0KiB time=00:00:00.06 bitrate=   5.3kbits/s speed=0.00215x elapsed=0:00:31.02    \nframe=    4 fps=0.1 q=42.2 size=       0KiB time=00:00:00.06 bitrate=   5.3kbits/s speed=0.00211x elapsed=0:00:31.64    \nframe=    5 fps=0.2 q=41.7 size=     256KiB time=00:00:00.10 bitrate=20975.0kbits/s speed=0.00311x elapsed=0:00:32.19    \nframe=    5 fps=0.2 q=41.7 size=     256KiB time=00:00:00.10 bitrate=20975.0kbits/s speed=0.00305x elapsed=0:00:32.73    \nframe=    5 fps=0.2 q=41.7 size=     256KiB time=00:00:00.10 bitrate=20975.0kbits/s speed=0.00301x elapsed=0:00:33.25    \nframe=    5 fps=0.1 q=41.7 size=     256KiB time=00:00:00.10 bitrate=20975.0kbits/s speed=0.00296x elapsed=0:00:33.81    \nframe=    5 fps=0.1 q=41.7 size=     256KiB time=00:00:00.10 bitrate=20975.0kbits/s speed=0.00291x elapsed=0:00:34.40    \nframe=    6 fps=0.2 q=38.6 size=     256KiB time=00:00:00.13 bitrate=15731.3kbits/s speed=0.00381x elapsed=0:00:35.03    \nframe=    6 fps=0.2 q=38.6 size=     256KiB time=00:00:00.13 bitrate=15731.3kbits/s speed=0.00373x elapsed=0:00:35.72    \nframe=    6 fps=0.2 q=38.6 size=     256KiB time=00:00:00.13 bitrate=15731.3kbits/s speed=0.00367x elapsed=0:00:36.33    \nframe=    6 fps=0.2 q=38.6 size=     256KiB time=00:00:00.13 bitrate=15731.3kbits/s speed=0.00362x elapsed=0:00:36.85    \nframe=    6 fps=0.2 q=38.6 size=     256KiB time=00:00:00.13 bitrate=15731.3kbits/s speed=0.00356x elapsed=0:00:37.47    \nframe=    6 fps=0.2 q=38.6 size=     256KiB time=00:00:00.13 bitrate=15731.3kbits/s speed=0.0035x elapsed=0:00:38.06    \nframe=    6 fps=0.2 q=38.6 size=     256KiB time=00:00:00.13 bitrate=15731.3kbits/s speed=0.00345x elapsed=0:00:38.62    \nframe=    7 fps=0.2 q=40.7 size=     256KiB time=00:00:00.16 bitrate=12585.0kbits/s speed=0.00426x elapsed=0:00:39.14    \nframe=    7 fps=0.2 q=40.7 size=     256KiB time=00:00:00.16 bitrate=12585.0kbits/s speed=0.00419x elapsed=0:00:39.74    \nframe=    7 fps=0.2 q=40.7 size=     256KiB time=00:00:00.16 bitrate=12585.0kbits/s speed=0.00413x elapsed=0:00:40.35    \nframe=    7 fps=0.2 q=40.7 size=     256KiB time=00:00:00.16 bitrate=12585.0kbits/s speed=0.00407x elapsed=0:00:40.92    \nframe=    7 fps=0.2 q=40.7 size=     256KiB time=00:00:00.16 bitrate=12585.0kbits/s speed=0.00402x elapsed=0:00:41.46    \nframe=    7 fps=0.2 q=40.7 size=     256KiB time=00:00:00.16 bitrate=12585.0kbits/s speed=0.00397x elapsed=0:00:42.01    \nframe=    7 fps=0.2 q=40.7 size=     256KiB time=00:00:00.16 bitrate=12585.0kbits/s speed=0.00392x elapsed=0:00:42.52    \nframe=    7 fps=0.2 q=40.7 size=     256KiB time=00:00:00.16 bitrate=12585.0kbits/s speed=0.00387x elapsed=0:00:43.07    \nframe=    8 fps=0.2 q=42.0 size=     256KiB time=00:00:00.16 bitrate=12585.0kbits/s speed=0.00382x elapsed=0:00:43.60    \nframe=    8 fps=0.2 q=42.0 size=     256KiB time=00:00:00.20 bitrate=10487.5kbits/s speed=0.00452x elapsed=0:00:44.21    \nframe=    8 fps=0.2 q=42.0 size=     256KiB time=00:00:00.20 bitrate=10487.5kbits/s speed=0.00446x elapsed=0:00:44.80    \nframe=    8 fps=0.2 q=42.0 size=     256KiB time=00:00:00.20 bitrate=10487.5kbits/s speed=0.00441x elapsed=0:00:45.38    \nframe=    8 fps=0.2 q=42.0 size=     256KiB time=00:00:00.20 bitrate=10487.5kbits/s speed=0.00435x elapsed=0:00:45.94    \nframe=    8 fps=0.2 q=42.0 size=     256KiB time=00:00:00.20 bitrate=10487.5kbits/s speed=0.0043x elapsed=0:00:46.49    \nframe=    9 fps=0.2 q=43.1 size=     256KiB time=00:00:00.23 bitrate=8989.3kbits/s speed=0.00496x elapsed=0:00:47.04    \nframe=    9 fps=0.2 q=43.1 size=     256KiB time=00:00:00.23 bitrate=8989.3kbits/s speed=0.00491x elapsed=0:00:47.56    \nframe=    9 fps=0.2 q=43.1 size=     256KiB time=00:00:00.23 bitrate=8989.3kbits/s speed=0.00484x elapsed=0:00:48.24    \nframe=    9 fps=0.2 q=43.1 size=     256KiB time=00:00:00.23 bitrate=8989.3kbits/s speed=0.00477x elapsed=0:00:48.88    \nframe=   11 fps=0.2 q=40.9 size=     256KiB time=00:00:00.30 bitrate=6991.7kbits/s speed=0.00606x elapsed=0:00:49.51    \nframe=   11 fps=0.2 q=40.9 size=     256KiB time=00:00:00.30 bitrate=6991.7kbits/s speed=0.00599x elapsed=0:00:50.06    \nframe=   11 fps=0.2 q=40.9 size=     256KiB time=00:00:00.30 bitrate=6991.7kbits/s speed=0.00593x elapsed=0:00:50.58    \nframe=   11 fps=0.2 q=40.9 size=     256KiB time=00:00:00.30 bitrate=6991.7kbits/s speed=0.00586x elapsed=0:00:51.15    \nframe=   11 fps=0.2 q=40.9 size=     256KiB time=00:00:00.30 bitrate=6991.7kbits/s speed=0.00581x elapsed=0:00:51.67    \nframe=   11 fps=0.2 q=40.9 size=     256KiB time=00:00:00.30 bitrate=6991.7kbits/s speed=0.00574x elapsed=0:00:52.22    \nframe=   12 fps=0.2 q=43.3 size=     512KiB time=00:00:00.33 bitrate=12584.0kbits/s speed=0.00632x elapsed=0:00:52.76    \nframe=   12 fps=0.2 q=43.3 size=     512KiB time=00:00:00.33 bitrate=12584.0kbits/s speed=0.00625x elapsed=0:00:53.29    \nframe=   12 fps=0.2 q=43.3 size=     512KiB time=00:00:00.33 bitrate=12584.0kbits/s speed=0.00619x elapsed=0:00:53.81    \nframe=   12 fps=0.2 q=43.3 size=     512KiB time=00:00:00.33 bitrate=12584.0kbits/s speed=0.00613x elapsed=0:00:54.34    \nframe=   12 fps=0.2 q=43.3 size=     512KiB time=00:00:00.33 bitrate=12584.0kbits/s speed=0.00607x elapsed=0:00:54.88    \nframe=   12 fps=0.2 q=43.3 size=     512KiB time=00:00:00.33 bitrate=12584.0kbits/s speed=0.00602x elapsed=0:00:55.40    \nframe=   12 fps=0.2 q=43.3 size=     512KiB time=00:00:00.33 bitrate=12584.0kbits/s speed=0.00595x elapsed=0:00:55.99    \nframe=   12 fps=0.2 q=43.3 size=     512KiB time=00:00:00.33 bitrate=12584.0kbits/s speed=0.0059x elapsed=0:00:56.50    \nframe=   12 fps=0.2 q=43.3 size=     512KiB time=00:00:00.33 bitrate=12584.0kbits/s speed=0.00584x elapsed=0:00:57.04    \nframe=   12 fps=0.2 q=43.3 size=     512KiB time=00:00:00.33 bitrate=12584.0kbits/s speed=0.00579x elapsed=0:00:57.57    \nframe=   12 fps=0.2 q=43.3 size=     512KiB time=00:00:00.33 bitrate=12584.0kbits/s speed=0.00574x elapsed=0:00:58.09    \nframe=   13 fps=0.2 q=43.4 size=     512KiB time=00:00:00.36 bitrate=11440.0kbits/s speed=0.00625x elapsed=0:00:58.63    \nframe=   13 fps=0.2 q=43.4 size=     512KiB time=00:00:00.36 bitrate=11440.0kbits/s speed=0.00619x elapsed=0:00:59.19    \nframe=   14 fps=0.2 q=38.7 size=     512KiB time=00:00:00.40 bitrate=10486.6kbits/s speed=0.0067x elapsed=0:00:59.71    \nframe=   14 fps=0.2 q=38.7 size=     512KiB time=00:00:00.40 bitrate=10486.6kbits/s speed=0.00663x elapsed=0:01:00.28    \nframe=   14 fps=0.2 q=38.7 size=     512KiB time=00:00:00.40 bitrate=10486.6kbits/s speed=0.00657x elapsed=0:01:00.86    \nframe=   15 fps=0.2 q=41.4 size=     512KiB time=00:00:00.43 bitrate=9680.0kbits/s speed=0.00706x elapsed=0:01:01.38    \nframe=   15 fps=0.2 q=41.4 size=     512KiB time=00:00:00.43 bitrate=9680.0kbits/s speed=0.007x elapsed=0:01:01.91    \nframe=   15 fps=0.2 q=41.4 size=     512KiB time=00:00:00.43 bitrate=9680.0kbits/s speed=0.00694x elapsed=0:01:02.48    \nframe=   15 fps=0.2 q=41.4 size=     512KiB time=00:00:00.43 bitrate=9680.0kbits/s speed=0.00687x elapsed=0:01:03.03    \nframe=   15 fps=0.2 q=41.4 size=     512KiB time=00:00:00.43 bitrate=9680.0kbits/s speed=0.00682x elapsed=0:01:03.57    \nframe=   15 fps=0.2 q=41.4 size=     512KiB time=00:00:00.43 bitrate=9680.0kbits/s speed=0.00676x elapsed=0:01:04.14    \nframe=   15 fps=0.2 q=41.4 size=     512KiB time=00:00:00.43 bitrate=9680.0kbits/s speed=0.0067x elapsed=0:01:04.67    \nframe=   15 fps=0.2 q=41.4 size=     512KiB time=00:00:00.43 bitrate=9680.0kbits/s speed=0.00665x elapsed=0:01:05.18    \nframe=   16 fps=0.2 q=43.4 size=     512KiB time=00:00:00.46 bitrate=8988.5kbits/s speed=0.0071x elapsed=0:01:05.69    \nframe=   16 fps=0.2 q=43.4 size=     512KiB time=00:00:00.46 bitrate=8988.5kbits/s speed=0.00704x elapsed=0:01:06.24    \nframe=   16 fps=0.2 q=43.4 size=     512KiB time=00:00:00.46 bitrate=8988.5kbits/s speed=0.00698x elapsed=0:01:06.83    \nframe=   16 fps=0.2 q=43.4 size=     512KiB time=00:00:00.46 bitrate=8988.5kbits/s speed=0.00693x elapsed=0:01:07.35    \nframe=   16 fps=0.2 q=43.4 size=     512KiB time=00:00:00.46 bitrate=8988.5kbits/s speed=0.00687x elapsed=0:01:07.88    \nframe=   17 fps=0.2 q=43.3 size=     512KiB time=00:00:00.50 bitrate=8389.3kbits/s speed=0.00731x elapsed=0:01:08.40    \nframe=   17 fps=0.2 q=43.3 size=     512KiB time=00:00:00.50 bitrate=8389.3kbits/s speed=0.00726x elapsed=0:01:08.91    \nframe=   17 fps=0.2 q=43.3 size=     512KiB time=00:00:00.50 bitrate=8389.3kbits/s speed=0.00719x elapsed=0:01:09.50    \nframe=   17 fps=0.2 q=43.3 size=     512KiB time=00:00:00.50 bitrate=8389.3kbits/s speed=0.00714x elapsed=0:01:10.03    \nframe=   17 fps=0.2 q=43.3 size=     512KiB time=00:00:00.50 bitrate=8389.3kbits/s speed=0.00709x elapsed=0:01:10.56    \nframe=   18 fps=0.3 q=38.8 size=     512KiB time=00:00:00.53 bitrate=7865.0kbits/s speed=0.0075x elapsed=0:01:11.11    \nframe=   19 fps=0.3 q=41.1 size=     512KiB time=00:00:00.56 bitrate=7402.3kbits/s speed=0.00791x elapsed=0:01:11.65    \nframe=   19 fps=0.3 q=41.1 size=     512KiB time=00:00:00.56 bitrate=7402.3kbits/s speed=0.00785x elapsed=0:01:12.19    \nframe=   19 fps=0.3 q=41.1 size=     512KiB time=00:00:00.56 bitrate=7402.3kbits/s speed=0.00779x elapsed=0:01:12.76    \nframe=   19 fps=0.3 q=41.1 size=     512KiB time=00:00:00.56 bitrate=7402.3kbits/s speed=0.00773x elapsed=0:01:13.26    \nframe=   19 fps=0.3 q=41.1 size=     512KiB time=00:00:00.56 bitrate=7402.3kbits/s speed=0.00768x elapsed=0:01:13.79    \nframe=   20 fps=0.3 q=43.5 size=     768KiB time=00:00:00.60 bitrate=10486.3kbits/s speed=0.00807x elapsed=0:01:14.31    \nframe=   20 fps=0.3 q=43.5 size=     768KiB time=00:00:00.60 bitrate=10486.3kbits/s speed=0.00801x elapsed=0:01:14.86    \nframe=   20 fps=0.3 q=43.5 size=     768KiB time=00:00:00.60 bitrate=10486.3kbits/s speed=0.00796x elapsed=0:01:15.41    \nframe=   20 fps=0.3 q=43.5 size=     768KiB time=00:00:00.60 bitrate=10486.3kbits/s speed=0.00789x elapsed=0:01:16.02    \nframe=   20 fps=0.3 q=43.5 size=     768KiB time=00:00:00.60 bitrate=10486.3kbits/s speed=0.00784x elapsed=0:01:16.57    \nframe=   20 fps=0.3 q=43.5 size=     768KiB time=00:00:00.60 bitrate=10486.3kbits/s speed=0.00777x elapsed=0:01:17.24    \nframe=   21 fps=0.3 q=43.4 size=     768KiB time=00:00:00.63 bitrate=9934.4kbits/s speed=0.00812x elapsed=0:01:17.99    \nframe=   21 fps=0.3 q=43.4 size=     768KiB time=00:00:00.63 bitrate=9934.4kbits/s speed=0.00806x elapsed=0:01:18.57    \nframe=   21 fps=0.3 q=43.4 size=     768KiB time=00:00:00.63 bitrate=9934.4kbits/s speed=0.008x elapsed=0:01:19.12    \nframe=   21 fps=0.3 q=43.4 size=     768KiB time=00:00:00.63 bitrate=9934.4kbits/s speed=0.00793x elapsed=0:01:19.81    \nframe=   22 fps=0.3 q=38.4 size=     768KiB time=00:00:00.66 bitrate=9437.7kbits/s speed=0.0083x elapsed=0:01:20.33    \nframe=   22 fps=0.3 q=38.4 size=     768KiB time=00:00:00.66 bitrate=9437.7kbits/s speed=0.00824x elapsed=0:01:20.87    \nframe=   22 fps=0.3 q=38.4 size=     768KiB time=00:00:00.66 bitrate=9437.7kbits/s speed=0.00819x elapsed=0:01:21.40    \nframe=   22 fps=0.3 q=38.4 size=     768KiB time=00:00:00.66 bitrate=9437.7kbits/s speed=0.00814x elapsed=0:01:21.92    \nframe=   23 fps=0.3 q=42.2 size=     768KiB time=00:00:00.70 bitrate=8988.3kbits/s speed=0.00849x elapsed=0:01:22.44    \nframe=   23 fps=0.3 q=42.2 size=     768KiB time=00:00:00.70 bitrate=8988.3kbits/s speed=0.00844x elapsed=0:01:22.95    \nframe=   23 fps=0.3 q=42.2 size=     768KiB time=00:00:00.70 bitrate=8988.3kbits/s speed=0.00838x elapsed=0:01:23.49    \nframe=   23 fps=0.3 q=42.2 size=     768KiB time=00:00:00.70 bitrate=8988.3kbits/s speed=0.00833x elapsed=0:01:24.00    \nframe=   23 fps=0.3 q=42.2 size=     768KiB time=00:00:00.70 bitrate=8988.3kbits/s speed=0.00827x elapsed=0:01:24.59    \nframe=   23 fps=0.3 q=42.2 size=     768KiB time=00:00:00.70 bitrate=8988.3kbits/s speed=0.00822x elapsed=0:01:25.16    \nframe=   23 fps=0.3 q=42.2 size=     768KiB time=00:00:00.70 bitrate=8988.3kbits/s speed=0.00817x elapsed=0:01:25.70    \nframe=   24 fps=0.3 q=43.7 size=     768KiB time=00:00:00.73 bitrate=8579.7kbits/s speed=0.0085x elapsed=0:01:26.26    \nframe=   24 fps=0.3 q=43.7 size=     768KiB time=00:00:00.73 bitrate=8579.7kbits/s speed=0.00845x elapsed=0:01:26.78    \nframe=   24 fps=0.3 q=43.7 size=     768KiB time=00:00:00.73 bitrate=8579.7kbits/s speed=0.0084x elapsed=0:01:27.30    \nframe=   24 fps=0.3 q=43.7 size=     768KiB time=00:00:00.73 bitrate=8579.7kbits/s speed=0.00835x elapsed=0:01:27.81    \nframe=   24 fps=0.3 q=43.7 size=     768KiB time=00:00:00.73 bitrate=8579.7kbits/s speed=0.0083x elapsed=0:01:28.33    \nframe=   24 fps=0.3 q=43.7 size=     768KiB time=00:00:00.73 bitrate=8579.7kbits/s speed=0.00825x elapsed=0:01:28.89    \nframe=   24 fps=0.3 q=43.7 size=     768KiB time=00:00:00.73 bitrate=8579.7kbits/s speed=0.0082x elapsed=0:01:29.40    \nframe=   24 fps=0.3 q=43.7 size=     768KiB time=00:00:00.73 bitrate=8579.7kbits/s speed=0.00815x elapsed=0:01:29.94    \nframe=   24 fps=0.3 q=43.7 size=     768KiB time=00:00:00.73 bitrate=8579.7kbits/s speed=0.00811x elapsed=0:01:30.45    \nframe=   24 fps=0.3 q=43.7 size=     768KiB time=00:00:00.73 bitrate=8579.7kbits/s speed=0.00806x elapsed=0:01:31.00    \nframe=   24 fps=0.3 q=43.7 size=     768KiB time=00:00:00.73 bitrate=8579.7kbits/s speed=0.00801x elapsed=0:01:31.52    \nframe=   24 fps=0.3 q=43.7 size=     768KiB time=00:00:00.73 bitrate=8579.7kbits/s speed=0.00797x elapsed=0:01:32.04    \nframe=   24 fps=0.3 q=43.7 size=     768KiB time=00:00:00.73 bitrate=8579.7kbits/s speed=0.00792x elapsed=0:01:32.55    \nframe=   25 fps=0.3 q=43.5 size=     768KiB time=00:00:00.76 bitrate=8206.7kbits/s speed=0.00824x elapsed=0:01:33.06    \nframe=   25 fps=0.3 q=43.5 size=     768KiB time=00:00:00.76 bitrate=8206.7kbits/s speed=0.00819x elapsed=0:01:33.60    \nframe=   25 fps=0.3 q=43.5 size=     768KiB time=00:00:00.76 bitrate=8206.7kbits/s speed=0.00814x elapsed=0:01:34.15    \nframe=   25 fps=0.3 q=43.5 size=     768KiB time=00:00:00.76 bitrate=8206.7kbits/s speed=0.0081x elapsed=0:01:34.65    \nframe=   25 fps=0.3 q=43.5 size=     768KiB time=00:00:00.76 bitrate=8206.7kbits/s speed=0.00805x elapsed=0:01:35.18    \nframe=   25 fps=0.3 q=43.5 size=     768KiB time=00:00:00.76 bitrate=8206.7kbits/s speed=0.00801x elapsed=0:01:35.69    \nframe=   25 fps=0.3 q=43.5 size=     768KiB time=00:00:00.76 bitrate=8206.7kbits/s speed=0.00797x elapsed=0:01:36.20    \nframe=   25 fps=0.3 q=43.5 size=     768KiB time=00:00:00.76 bitrate=8206.7kbits/s speed=0.00793x elapsed=0:01:36.73    \nframe=   26 fps=0.3 q=43.5 size=     768KiB time=00:00:00.80 bitrate=7864.8kbits/s speed=0.00823x elapsed=0:01:37.25    \nframe=   26 fps=0.3 q=43.5 size=     768KiB time=00:00:00.80 bitrate=7864.8kbits/s speed=0.00818x elapsed=0:01:37.77    \nframe=   26 fps=0.3 q=43.5 size=     768KiB time=00:00:00.80 bitrate=7864.8kbits/s speed=0.00814x elapsed=0:01:38.29    \nframe=   26 fps=0.3 q=43.5 size=     768KiB time=00:00:00.80 bitrate=7864.8kbits/s speed=0.0081x elapsed=0:01:38.81    \nframe=   27 fps=0.3 q=38.6 size=     768KiB time=00:00:00.83 bitrate=7550.2kbits/s speed=0.00839x elapsed=0:01:39.31    \nframe=   27 fps=0.3 q=38.6 size=     768KiB time=00:00:00.83 bitrate=7550.2kbits/s speed=0.00835x elapsed=0:01:39.82    \nframe=   27 fps=0.3 q=38.6 size=     768KiB time=00:00:00.83 bitrate=7550.2kbits/s speed=0.0083x elapsed=0:01:40.35    \nframe=   27 fps=0.3 q=38.6 size=     768KiB time=00:00:00.83 bitrate=7550.2kbits/s speed=0.00826x elapsed=0:01:40.88    \nframe=   28 fps=0.3 q=40.8 size=     768KiB time=00:00:00.86 bitrate=7259.8kbits/s speed=0.00855x elapsed=0:01:41.39    \nframe=   28 fps=0.3 q=40.8 size=     768KiB time=00:00:00.86 bitrate=7259.8kbits/s speed=0.0085x elapsed=0:01:41.91    \nframe=   28 fps=0.3 q=40.8 size=     768KiB time=00:00:00.86 bitrate=7259.8kbits/s speed=0.00846x elapsed=0:01:42.43    \nframe=   28 fps=0.3 q=40.8 size=     768KiB time=00:00:00.86 bitrate=7259.8kbits/s speed=0.00842x elapsed=0:01:42.94    \nframe=   28 fps=0.3 q=40.8 size=     768KiB time=00:00:00.86 bitrate=7259.8kbits/s speed=0.00838x elapsed=0:01:43.46    \nframe=   28 fps=0.3 q=40.8 size=     768KiB time=00:00:00.86 bitrate=7259.8kbits/s speed=0.00833x elapsed=0:01:43.98    \nframe=   28 fps=0.3 q=40.8 size=     768KiB time=00:00:00.86 bitrate=7259.8kbits/s speed=0.00829x elapsed=0:01:44.50    \nframe=   28 fps=0.3 q=40.8 size=     768KiB time=00:00:00.86 bitrate=7259.8kbits/s speed=0.00825x elapsed=0:01:45.03    \nframe=   28 fps=0.3 q=40.8 size=     768KiB time=00:00:00.86 bitrate=7259.8kbits/s speed=0.00821x elapsed=0:01:45.55    \nframe=   29 fps=0.3 q=43.3 size=    1024KiB time=00:00:00.90 bitrate=9321.1kbits/s speed=0.00848x elapsed=0:01:46.08    \nframe=   29 fps=0.3 q=43.3 size=    1024KiB time=00:00:00.90 bitrate=9321.1kbits/s speed=0.00844x elapsed=0:01:46.60    \nframe=   29 fps=0.3 q=43.3 size=    1024KiB time=00:00:00.90 bitrate=9321.1kbits/s speed=0.0084x elapsed=0:01:47.11    \nframe=   29 fps=0.3 q=43.3 size=    1024KiB time=00:00:00.90 bitrate=9321.1kbits/s speed=0.00836x elapsed=0:01:47.63    \nframe=   29 fps=0.3 q=43.3 size=    1024KiB time=00:00:00.90 bitrate=9321.1kbits/s speed=0.00832x elapsed=0:01:48.15    \nframe=   29 fps=0.3 q=43.3 size=    1024KiB time=00:00:00.90 bitrate=9321.1kbits/s speed=0.00828x elapsed=0:01:48.66    \nframe=   29 fps=0.3 q=43.3 size=    1024KiB time=00:00:00.90 bitrate=9321.1kbits/s speed=0.00824x elapsed=0:01:49.18    \nframe=   29 fps=0.3 q=43.3 size=    1024KiB time=00:00:00.90 bitrate=9321.1kbits/s speed=0.0082x elapsed=0:01:49.69    \nframe=   30 fps=0.3 q=43.3 size=    1024KiB time=00:00:00.93 bitrate=8988.2kbits/s speed=0.00847x elapsed=0:01:50.21    \nframe=   30 fps=0.3 q=43.3 size=    1024KiB time=00:00:00.93 bitrate=8988.2kbits/s speed=0.00843x elapsed=0:01:50.72    \nframe=   30 fps=0.3 q=43.3 size=    1024KiB time=00:00:00.93 bitrate=8988.2kbits/s speed=0.00839x elapsed=0:01:51.24    \nframe=   30 fps=0.3 q=43.3 size=    1024KiB time=00:00:00.93 bitrate=8988.2kbits/s speed=0.00835x elapsed=0:01:51.77    \nframe=   30 fps=0.3 q=43.3 size=    1024KiB time=00:00:00.93 bitrate=8988.2kbits/s speed=0.00831x elapsed=0:01:52.28    \nframe=   31 fps=0.3 q=38.5 size=    1024KiB time=00:00:00.96 bitrate=8678.2kbits/s speed=0.00857x elapsed=0:01:52.80    \nframe=   31 fps=0.3 q=38.5 size=    1024KiB time=00:00:00.96 bitrate=8678.2kbits/s speed=0.00853x elapsed=0:01:53.32    \nframe=   31 fps=0.3 q=38.5 size=    1024KiB time=00:00:00.96 bitrate=8678.2kbits/s speed=0.00849x elapsed=0:01:53.85    \nframe=   32 fps=0.3 q=41.2 size=    1024KiB time=00:00:01.00 bitrate=8389.0kbits/s speed=0.00874x elapsed=0:01:54.36    \nframe=   32 fps=0.3 q=41.2 size=    1024KiB time=00:00:01.00 bitrate=8389.0kbits/s speed=0.0087x elapsed=0:01:54.88    \nframe=   32 fps=0.3 q=41.2 size=    1024KiB time=00:00:01.00 bitrate=8389.0kbits/s speed=0.00867x elapsed=0:01:55.39    \nframe=   32 fps=0.3 q=41.2 size=    1024KiB time=00:00:01.00 bitrate=8389.0kbits/s speed=0.00863x elapsed=0:01:55.91    \nframe=   32 fps=0.3 q=41.2 size=    1024KiB time=00:00:01.00 bitrate=8389.0kbits/s speed=0.00859x elapsed=0:01:56.42    \nframe=   32 fps=0.3 q=41.2 size=    1024KiB time=00:00:01.00 bitrate=8389.0kbits/s speed=0.00855x elapsed=0:01:56.96    \nframe=   32 fps=0.3 q=41.2 size=    1024KiB time=00:00:01.00 bitrate=8389.0kbits/s speed=0.00851x elapsed=0:01:57.48    \nframe=   33 fps=0.3 q=43.5 size=    1024KiB time=00:00:01.03 bitrate=8118.4kbits/s speed=0.00876x elapsed=0:01:58.00    \nframe=   33 fps=0.3 q=43.5 size=    1024KiB time=00:00:01.03 bitrate=8118.4kbits/s speed=0.00872x elapsed=0:01:58.53    \nframe=   33 fps=0.3 q=43.5 size=    1024KiB time=00:00:01.03 bitrate=8118.4kbits/s speed=0.00868x elapsed=0:01:59.06    \nframe=   33 fps=0.3 q=43.5 size=    1024KiB time=00:00:01.03 bitrate=8118.4kbits/s speed=0.00864x elapsed=0:01:59.58    \nframe=   34 fps=0.3 q=43.4 size=    1024KiB time=00:00:01.06 bitrate=7864.6kbits/s speed=0.00888x elapsed=0:02:00.09    \nframe=   34 fps=0.3 q=43.4 size=    1024KiB time=00:00:01.06 bitrate=7864.6kbits/s speed=0.00884x elapsed=0:02:00.61    \nframe=   34 fps=0.3 q=43.4 size=    1024KiB time=00:00:01.06 bitrate=7864.6kbits/s speed=0.00881x elapsed=0:02:01.12    \nframe=   34 fps=0.3 q=43.4 size=    1024KiB time=00:00:01.06 bitrate=7864.6kbits/s speed=0.00877x elapsed=0:02:01.64    \nframe=   34 fps=0.3 q=43.4 size=    1024KiB time=00:00:01.06 bitrate=7864.6kbits/s speed=0.00873x elapsed=0:02:02.16    \nframe=   34 fps=0.3 q=43.4 size=    1024KiB time=00:00:01.06 bitrate=7864.6kbits/s speed=0.00869x elapsed=0:02:02.68    \nframe=   35 fps=0.3 q=38.7 size=    1024KiB time=00:00:01.10 bitrate=7626.3kbits/s speed=0.00893x elapsed=0:02:03.21    \nframe=   35 fps=0.3 q=38.7 size=    1024KiB time=00:00:01.10 bitrate=7626.3kbits/s speed=0.00889x elapsed=0:02:03.73    \nframe=   35 fps=0.3 q=38.7 size=    1024KiB time=00:00:01.10 bitrate=7626.3kbits/s speed=0.00885x elapsed=0:02:04.25    \nframe=   35 fps=0.3 q=38.7 size=    1024KiB time=00:00:01.10 bitrate=7626.3kbits/s speed=0.00881x elapsed=0:02:04.79    \nframe=   35 fps=0.3 q=38.7 size=    1024KiB time=00:00:01.10 bitrate=7626.3kbits/s speed=0.00878x elapsed=0:02:05.33    \nframe=   36 fps=0.3 q=40.8 size=    1024KiB time=00:00:01.13 bitrate=7402.0kbits/s speed=0.00901x elapsed=0:02:05.84    \nframe=   36 fps=0.3 q=40.8 size=    1024KiB time=00:00:01.13 bitrate=7402.0kbits/s speed=0.00897x elapsed=0:02:06.36    \nframe=   36 fps=0.3 q=40.8 size=    1024KiB time=00:00:01.13 bitrate=7402.0kbits/s speed=0.00893x elapsed=0:02:06.88    \nframe=   36 fps=0.3 q=40.8 size=    1024KiB time=00:00:01.13 bitrate=7402.0kbits/s speed=0.0089x elapsed=0:02:07.40    \nframe=   36 fps=0.3 q=40.8 size=    1024KiB time=00:00:01.13 bitrate=7402.0kbits/s speed=0.00886x elapsed=0:02:07.92    \nframe=   36 fps=0.3 q=40.8 size=    1024KiB time=00:00:01.13 bitrate=7402.0kbits/s speed=0.00882x elapsed=0:02:08.43    \nframe=   37 fps=0.3 q=43.4 size=    1280KiB time=00:00:01.16 bitrate=8988.1kbits/s speed=0.00905x elapsed=0:02:08.94    \nframe=   37 fps=0.3 q=43.4 size=    1280KiB time=00:00:01.16 bitrate=8988.1kbits/s speed=0.00901x elapsed=0:02:09.45    \nframe=   37 fps=0.3 q=43.4 size=    1280KiB time=00:00:01.16 bitrate=8988.1kbits/s speed=0.00898x elapsed=0:02:09.97    \nframe=   37 fps=0.3 q=43.4 size=    1280KiB time=00:00:01.16 bitrate=8988.1kbits/s speed=0.00894x elapsed=0:02:10.49    \nframe=   37 fps=0.3 q=43.4 size=    1280KiB time=00:00:01.16 bitrate=8988.1kbits/s speed=0.00891x elapsed=0:02:11.01    \nframe=   37 fps=0.3 q=43.4 size=    1280KiB time=00:00:01.16 bitrate=8988.1kbits/s speed=0.00887x elapsed=0:02:11.53    \nframe=   37 fps=0.3 q=43.4 size=    1280KiB time=00:00:01.16 bitrate=8988.1kbits/s speed=0.00883x elapsed=0:02:12.05    \nframe=   38 fps=0.3 q=43.2 size=    1280KiB time=00:00:01.20 bitrate=8738.4kbits/s speed=0.00905x elapsed=0:02:12.56    \nframe=   38 fps=0.3 q=43.2 size=    1280KiB time=00:00:01.20 bitrate=8738.4kbits/s speed=0.00902x elapsed=0:02:13.08    \nframe=   38 fps=0.3 q=43.2 size=    1280KiB time=00:00:01.20 bitrate=8738.4kbits/s speed=0.00898x elapsed=0:02:13.61    \nframe=   38 fps=0.3 q=43.2 size=    1280KiB time=00:00:01.20 bitrate=8738.4kbits/s speed=0.00895x elapsed=0:02:14.14    \nframe=   38 fps=0.3 q=43.2 size=    1280KiB time=00:00:01.20 bitrate=8738.4kbits/s speed=0.00891x elapsed=0:02:14.65    \nframe=   39 fps=0.3 q=38.5 size=    1280KiB time=00:00:01.23 bitrate=8502.3kbits/s speed=0.00912x elapsed=0:02:15.17    \nframe=   39 fps=0.3 q=38.5 size=    1280KiB time=00:00:01.23 bitrate=8502.3kbits/s speed=0.00909x elapsed=0:02:15.69    \nframe=   39 fps=0.3 q=38.5 size=    1280KiB time=00:00:01.23 bitrate=8502.3kbits/s speed=0.00905x elapsed=0:02:16.21    \nframe=   40 fps=0.3 q=40.8 size=    1280KiB time=00:00:01.26 bitrate=8278.5kbits/s speed=0.00926x elapsed=0:02:16.73    \nframe=   40 fps=0.3 q=40.8 size=    1280KiB time=00:00:01.26 bitrate=8278.5kbits/s speed=0.00923x elapsed=0:02:17.24    \nframe=   40 fps=0.3 q=40.8 size=    1280KiB time=00:00:01.26 bitrate=8278.5kbits/s speed=0.00919x elapsed=0:02:17.76    \nframe=   40 fps=0.3 q=40.8 size=    1280KiB time=00:00:01.26 bitrate=8278.5kbits/s speed=0.00916x elapsed=0:02:18.27    \nframe=   40 fps=0.3 q=40.8 size=    1280KiB time=00:00:01.26 bitrate=8278.5kbits/s speed=0.00913x elapsed=0:02:18.78    \nframe=   41 fps=0.3 q=43.3 size=    1280KiB time=00:00:01.30 bitrate=8066.2kbits/s speed=0.00933x elapsed=0:02:19.30    \nframe=   41 fps=0.3 q=43.3 size=    1280KiB time=00:00:01.30 bitrate=8066.2kbits/s speed=0.0093x elapsed=0:02:19.81    \nframe=   41 fps=0.3 q=43.3 size=    1280KiB time=00:00:01.30 bitrate=8066.2kbits/s speed=0.00926x elapsed=0:02:20.34    \nframe=   41 fps=0.3 q=43.3 size=    1280KiB time=00:00:01.30 bitrate=8066.2kbits/s speed=0.00923x elapsed=0:02:20.84    \nframe=   41 fps=0.3 q=43.3 size=    1280KiB time=00:00:01.30 bitrate=8066.2kbits/s speed=0.0092x elapsed=0:02:21.35    \nframe=   42 fps=0.3 q=43.4 size=    1280KiB time=00:00:01.33 bitrate=7864.6kbits/s speed=0.0094x elapsed=0:02:21.87    \nframe=   42 fps=0.3 q=43.4 size=    1280KiB time=00:00:01.33 bitrate=7864.6kbits/s speed=0.00936x elapsed=0:02:22.39    \nframe=   42 fps=0.3 q=43.4 size=    1280KiB time=00:00:01.33 bitrate=7864.6kbits/s speed=0.00933x elapsed=0:02:22.90    \nframe=   42 fps=0.3 q=43.4 size=    1280KiB time=00:00:01.33 bitrate=7864.6kbits/s speed=0.0093x elapsed=0:02:23.43    \nframe=   43 fps=0.3 q=38.7 size=    1280KiB time=00:00:01.36 bitrate=7672.8kbits/s speed=0.00949x elapsed=0:02:23.96    \nframe=   43 fps=0.3 q=38.7 size=    1280KiB time=00:00:01.36 bitrate=7672.8kbits/s speed=0.00946x elapsed=0:02:24.48    \nframe=   43 fps=0.3 q=38.7 size=    1280KiB time=00:00:01.36 bitrate=7672.8kbits/s speed=0.00942x elapsed=0:02:25.00    \nframe=   43 fps=0.3 q=38.7 size=    1280KiB time=00:00:01.36 bitrate=7672.8kbits/s speed=0.00939x elapsed=0:02:25.52    \nframe=   44 fps=0.3 q=41.0 size=    1280KiB time=00:00:01.40 bitrate=7490.1kbits/s speed=0.00959x elapsed=0:02:26.04    \nframe=   44 fps=0.3 q=41.0 size=    1280KiB time=00:00:01.40 bitrate=7490.1kbits/s speed=0.00955x elapsed=0:02:26.56    \nframe=   44 fps=0.3 q=41.0 size=    1280KiB time=00:00:01.40 bitrate=7490.1kbits/s speed=0.00952x elapsed=0:02:27.08    \nframe=   45 fps=0.3 q=43.2 size=    1536KiB time=00:00:01.43 bitrate=8779.0kbits/s speed=0.00971x elapsed=0:02:27.59    \nframe=   45 fps=0.3 q=43.2 size=    1536KiB time=00:00:01.43 bitrate=8779.0kbits/s speed=0.00968x elapsed=0:02:28.11    \nframe=   45 fps=0.3 q=43.2 size=    1536KiB time=00:00:01.43 bitrate=8779.0kbits/s speed=0.00964x elapsed=0:02:28.62    \nframe=   45 fps=0.3 q=43.2 size=    1536KiB time=00:00:01.43 bitrate=8779.0kbits/s speed=0.00961x elapsed=0:02:29.14    \nframe=   45 fps=0.3 q=43.2 size=    1536KiB time=00:00:01.43 bitrate=8779.0kbits/s speed=0.00958x elapsed=0:02:29.66    \nframe=   45 fps=0.3 q=43.2 size=    1536KiB time=00:00:01.43 bitrate=8779.0kbits/s speed=0.00954x elapsed=0:02:30.19    \nframe=   46 fps=0.3 q=43.2 size=    1536KiB time=00:00:01.46 bitrate=8579.5kbits/s speed=0.00973x elapsed=0:02:30.71    \nframe=   46 fps=0.3 q=43.2 size=    1536KiB time=00:00:01.46 bitrate=8579.5kbits/s speed=0.0097x elapsed=0:02:31.23    \nframe=   47 fps=0.3 q=38.7 size=    1536KiB time=00:00:01.50 bitrate=8388.8kbits/s speed=0.00989x elapsed=0:02:31.73    \nframe=   48 fps=0.3 q=41.0 size=    1536KiB time=00:00:01.53 bitrate=8206.5kbits/s speed=0.0101x elapsed=0:02:32.26    \nframe=   48 fps=0.3 q=41.0 size=    1536KiB time=00:00:01.53 bitrate=8206.5kbits/s speed=0.01x elapsed=0:02:32.77    \nframe=   48 fps=0.3 q=41.0 size=    1536KiB time=00:00:01.53 bitrate=8206.5kbits/s speed=0.01x elapsed=0:02:33.28    \nframe=   49 fps=0.3 q=43.4 size=    1536KiB time=00:00:01.56 bitrate=8031.9kbits/s speed=0.0102x elapsed=0:02:33.80    \nframe=   49 fps=0.3 q=43.4 size=    1536KiB time=00:00:01.56 bitrate=8031.9kbits/s speed=0.0102x elapsed=0:02:34.31    \nframe=   49 fps=0.3 q=43.4 size=    1536KiB time=00:00:01.56 bitrate=8031.9kbits/s speed=0.0101x elapsed=0:02:34.83    \nframe=   50 fps=0.3 q=43.2 size=    1536KiB time=00:00:01.60 bitrate=7864.5kbits/s speed=0.0103x elapsed=0:02:35.35    \nframe=   50 fps=0.3 q=43.2 size=    1536KiB time=00:00:01.60 bitrate=7864.5kbits/s speed=0.0103x elapsed=0:02:35.86    \nframe=   51 fps=0.3 q=38.9 size=    1536KiB time=00:00:01.63 bitrate=7704.0kbits/s speed=0.0104x elapsed=0:02:36.38    \nframe=   51 fps=0.3 q=38.9 size=    1536KiB time=00:00:01.63 bitrate=7704.0kbits/s speed=0.0104x elapsed=0:02:36.90    \nframe=   52 fps=0.3 q=41.1 size=    1792KiB time=00:00:01.66 bitrate=8808.2kbits/s speed=0.0106x elapsed=0:02:37.41    \nframe=   52 fps=0.3 q=41.1 size=    1792KiB time=00:00:01.66 bitrate=8808.2kbits/s speed=0.0106x elapsed=0:02:37.93    \nframe=   53 fps=0.3 q=43.1 size=    1792KiB time=00:00:01.70 bitrate=8635.5kbits/s speed=0.0107x elapsed=0:02:38.44    \nframe=   53 fps=0.3 q=43.1 size=    1792KiB time=00:00:01.70 bitrate=8635.5kbits/s speed=0.0107x elapsed=0:02:38.95    \nframe=   53 fps=0.3 q=43.1 size=    1792KiB time=00:00:01.70 bitrate=8635.5kbits/s speed=0.0107x elapsed=0:02:39.47    \nframe=   53 fps=0.3 q=43.1 size=    1792KiB time=00:00:01.70 bitrate=8635.5kbits/s speed=0.0106x elapsed=0:02:39.98    \nframe=   54 fps=0.3 q=43.3 size=    1792KiB time=00:00:01.73 bitrate=8469.5kbits/s speed=0.0108x elapsed=0:02:40.50    \nframe=   54 fps=0.3 q=43.3 size=    1792KiB time=00:00:01.73 bitrate=8469.5kbits/s speed=0.0108x elapsed=0:02:41.01    \nframe=   55 fps=0.3 q=38.5 size=    1792KiB time=00:00:01.76 bitrate=8309.7kbits/s speed=0.0109x elapsed=0:02:41.54    \nframe=   55 fps=0.3 q=38.5 size=    1792KiB time=00:00:01.76 bitrate=8309.7kbits/s speed=0.0109x elapsed=0:02:42.05    \nframe=   56 fps=0.3 q=40.9 size=    1792KiB time=00:00:01.80 bitrate=8155.8kbits/s speed=0.0111x elapsed=0:02:42.57    \nframe=   56 fps=0.3 q=40.9 size=    1792KiB time=00:00:01.80 bitrate=8155.8kbits/s speed=0.011x elapsed=0:02:43.08    \nframe=   56 fps=0.3 q=40.9 size=    1792KiB time=00:00:01.80 bitrate=8155.8kbits/s speed=0.011x elapsed=0:02:43.59    \nframe=   57 fps=0.3 q=43.2 size=    1792KiB time=00:00:01.83 bitrate=8007.5kbits/s speed=0.0112x elapsed=0:02:44.12    \nframe=   57 fps=0.3 q=43.2 size=    1792KiB time=00:00:01.83 bitrate=8007.5kbits/s speed=0.0111x elapsed=0:02:44.63    \nframe=   57 fps=0.3 q=43.2 size=    1792KiB time=00:00:01.83 bitrate=8007.5kbits/s speed=0.0111x elapsed=0:02:45.15    \nframe=   58 fps=0.4 q=43.3 size=    1792KiB time=00:00:01.86 bitrate=7864.5kbits/s speed=0.0113x elapsed=0:02:45.66    \nframe=   59 fps=0.4 q=38.6 size=    1792KiB time=00:00:01.90 bitrate=7726.5kbits/s speed=0.0114x elapsed=0:02:46.18    \nframe=   60 fps=0.4 q=40.9 size=    2048KiB time=00:00:01.93 bitrate=8678.1kbits/s speed=0.0116x elapsed=0:02:46.69    \nframe=   61 fps=0.4 q=43.2 size=    2048KiB time=00:00:01.96 bitrate=8531.0kbits/s speed=0.0118x elapsed=0:02:47.21    \nframe=   61 fps=0.4 q=43.2 size=    2048KiB time=00:00:01.96 bitrate=8531.0kbits/s speed=0.0117x elapsed=0:02:47.72    \nframe=   62 fps=0.4 q=43.3 size=    2048KiB time=00:00:02.00 bitrate=8388.8kbits/s speed=0.0119x elapsed=0:02:48.23    \nframe=   62 fps=0.4 q=43.3 size=    2048KiB time=00:00:02.00 bitrate=8388.8kbits/s speed=0.0119x elapsed=0:02:48.75    \nframe=   63 fps=0.4 q=38.5 size=    2048KiB time=00:00:02.03 bitrate=8251.3kbits/s speed=0.012x elapsed=0:02:49.27    \nframe=   63 fps=0.4 q=38.5 size=    2048KiB time=00:00:02.03 bitrate=8251.3kbits/s speed=0.012x elapsed=0:02:49.78    \nframe=   63 fps=0.4 q=38.5 size=    2048KiB time=00:00:02.03 bitrate=8251.3kbits/s speed=0.0119x elapsed=0:02:50.30    \nframe=   64 fps=0.4 q=41.1 size=    2048KiB time=00:00:02.06 bitrate=8118.2kbits/s speed=0.0121x elapsed=0:02:50.82    \nframe=   64 fps=0.4 q=41.1 size=    2048KiB time=00:00:02.06 bitrate=8118.2kbits/s speed=0.0121x elapsed=0:02:51.33    \nframe=   65 fps=0.4 q=43.3 size=    2048KiB time=00:00:02.10 bitrate=7989.3kbits/s speed=0.0122x elapsed=0:02:51.84    \nframe=   66 fps=0.4 q=43.1 size=    2048KiB time=00:00:02.13 bitrate=7864.5kbits/s speed=0.0124x elapsed=0:02:52.36    \nframe=   66 fps=0.4 q=43.1 size=    2048KiB time=00:00:02.13 bitrate=7864.5kbits/s speed=0.0123x elapsed=0:02:52.88    \nframe=   67 fps=0.4 q=38.2 size=    2048KiB time=00:00:02.16 bitrate=7743.5kbits/s speed=0.0125x elapsed=0:02:53.39    \nframe=   67 fps=0.4 q=38.2 size=    2048KiB time=00:00:02.16 bitrate=7743.5kbits/s speed=0.0125x elapsed=0:02:53.91    \nframe=   67 fps=0.4 q=38.2 size=    2048KiB time=00:00:02.16 bitrate=7743.5kbits/s speed=0.0124x elapsed=0:02:54.43    \nframe=   68 fps=0.4 q=41.8 size=    2048KiB time=00:00:02.20 bitrate=7626.2kbits/s speed=0.0126x elapsed=0:02:54.94    \nframe=   68 fps=0.4 q=41.8 size=    2048KiB time=00:00:02.20 bitrate=7626.2kbits/s speed=0.0125x elapsed=0:02:55.46    \nframe=   69 fps=0.4 q=43.2 size=    2304KiB time=00:00:02.23 bitrate=8451.4kbits/s speed=0.0127x elapsed=0:02:55.97    \nframe=   70 fps=0.4 q=43.4 size=    2304KiB time=00:00:02.26 bitrate=8327.1kbits/s speed=0.0128x elapsed=0:02:56.49    \nframe=   71 fps=0.4 q=43.4 size=    2304KiB time=00:00:02.30 bitrate=8206.4kbits/s speed=0.013x elapsed=0:02:57.00    \nframe=   71 fps=0.4 q=43.4 size=    2304KiB time=00:00:02.30 bitrate=8206.4kbits/s speed=0.013x elapsed=0:02:57.52    \nframe=   71 fps=0.4 q=43.4 size=    2304KiB time=00:00:02.30 bitrate=8206.4kbits/s speed=0.0129x elapsed=0:02:58.06    \nframe=   71 fps=0.4 q=43.4 size=    2304KiB time=00:00:02.30 bitrate=8206.4kbits/s speed=0.0129x elapsed=0:02:58.57    \nframe=   71 fps=0.4 q=43.4 size=    2304KiB time=00:00:02.30 bitrate=8206.4kbits/s speed=0.0128x elapsed=0:02:59.09    \nframe=   71 fps=0.4 q=43.4 size=    2304KiB time=00:00:02.30 bitrate=8206.4kbits/s speed=0.0128x elapsed=0:02:59.60    \nframe=   71 fps=0.4 q=43.4 size=    2304KiB time=00:00:02.30 bitrate=8206.4kbits/s speed=0.0128x elapsed=0:03:00.12    \nframe=   71 fps=0.4 q=43.4 size=    2304KiB time=00:00:02.30 bitrate=8206.4kbits/s speed=0.0127x elapsed=0:03:00.64    \nframe=   71 fps=0.4 q=43.4 size=    2304KiB time=00:00:02.30 bitrate=8206.4kbits/s speed=0.0127x elapsed=0:03:01.16    \nframe=   72 fps=0.4 q=38.4 size=    2304KiB time=00:00:02.33 bitrate=8089.2kbits/s speed=0.0128x elapsed=0:03:01.67    \nframe=   72 fps=0.4 q=38.4 size=    2304KiB time=00:00:02.33 bitrate=8089.2kbits/s speed=0.0128x elapsed=0:03:02.19    \nframe=   72 fps=0.4 q=38.4 size=    2304KiB time=00:00:02.33 bitrate=8089.2kbits/s speed=0.0128x elapsed=0:03:02.73    \nframe=   72 fps=0.4 q=38.4 size=    2304KiB time=00:00:02.33 bitrate=8089.2kbits/s speed=0.0127x elapsed=0:03:03.26    \nframe=   72 fps=0.4 q=38.4 size=    2304KiB time=00:00:02.33 bitrate=8089.2kbits/s speed=0.0127x elapsed=0:03:03.76    \nframe=   72 fps=0.4 q=38.4 size=    2304KiB time=00:00:02.33 bitrate=8089.2kbits/s speed=0.0127x elapsed=0:03:04.28    \nframe=   73 fps=0.4 q=41.1 size=    2304KiB time=00:00:02.36 bitrate=7975.2kbits/s speed=0.0128x elapsed=0:03:04.80    \nframe=   73 fps=0.4 q=41.1 size=    2304KiB time=00:00:02.36 bitrate=7975.2kbits/s speed=0.0128x elapsed=0:03:05.32    \nframe=   73 fps=0.4 q=41.1 size=    2304KiB time=00:00:02.36 bitrate=7975.2kbits/s speed=0.0127x elapsed=0:03:05.83    \nframe=   73 fps=0.4 q=41.1 size=    2304KiB time=00:00:02.36 bitrate=7975.2kbits/s speed=0.0127x elapsed=0:03:06.35    \nframe=   74 fps=0.4 q=43.8 size=    2304KiB time=00:00:02.40 bitrate=7864.5kbits/s speed=0.0128x elapsed=0:03:06.86    \nframe=   74 fps=0.4 q=43.8 size=    2304KiB time=00:00:02.40 bitrate=7864.5kbits/s speed=0.0128x elapsed=0:03:07.38    \nframe=   75 fps=0.4 q=43.8 size=    2304KiB time=00:00:02.43 bitrate=7756.7kbits/s speed=0.013x elapsed=0:03:07.89    \nframe=   76 fps=0.4 q=38.8 size=    2304KiB time=00:00:02.46 bitrate=7651.9kbits/s speed=0.0131x elapsed=0:03:08.41    \nframe=   76 fps=0.4 q=38.8 size=    2304KiB time=00:00:02.46 bitrate=7651.9kbits/s speed=0.0131x elapsed=0:03:08.94    \nframe=   76 fps=0.4 q=38.8 size=    2304KiB time=00:00:02.46 bitrate=7651.9kbits/s speed=0.013x elapsed=0:03:09.46    \nframe=   76 fps=0.4 q=38.8 size=    2304KiB time=00:00:02.46 bitrate=7651.9kbits/s speed=0.013x elapsed=0:03:09.99    \nframe=   76 fps=0.4 q=38.8 size=    2304KiB time=00:00:02.46 bitrate=7651.9kbits/s speed=0.0129x elapsed=0:03:10.51    \nframe=   76 fps=0.4 q=38.8 size=    2304KiB time=00:00:02.46 bitrate=7651.9kbits/s speed=0.0129x elapsed=0:03:11.02    \nframe=   76 fps=0.4 q=38.8 size=    2304KiB time=00:00:02.46 bitrate=7651.9kbits/s speed=0.0129x elapsed=0:03:11.54    \nframe=   76 fps=0.4 q=38.8 size=    2304KiB time=00:00:02.46 bitrate=7651.9kbits/s speed=0.0128x elapsed=0:03:12.06    \nframe=   76 fps=0.4 q=38.8 size=    2304KiB time=00:00:02.46 bitrate=7651.9kbits/s speed=0.0128x elapsed=0:03:12.57    \nframe=   76 fps=0.4 q=38.8 size=    2304KiB time=00:00:02.46 bitrate=7651.9kbits/s speed=0.0128x elapsed=0:03:13.09    \nframe=   77 fps=0.4 q=42.3 size=    2304KiB time=00:00:02.50 bitrate=7549.9kbits/s speed=0.0129x elapsed=0:03:13.60    \nframe=   77 fps=0.4 q=42.3 size=    2304KiB time=00:00:02.50 bitrate=7549.9kbits/s speed=0.0129x elapsed=0:03:14.11    \nframe=   77 fps=0.4 q=42.3 size=    2304KiB time=00:00:02.50 bitrate=7549.9kbits/s speed=0.0128x elapsed=0:03:14.63    \nframe=   77 fps=0.4 q=42.3 size=    2304KiB time=00:00:02.50 bitrate=7549.9kbits/s speed=0.0128x elapsed=0:03:15.14    \nframe=   77 fps=0.4 q=42.3 size=    2304KiB time=00:00:02.50 bitrate=7549.9kbits/s speed=0.0128x elapsed=0:03:15.67    \nframe=   77 fps=0.4 q=42.3 size=    2304KiB time=00:00:02.50 bitrate=7549.9kbits/s speed=0.0127x elapsed=0:03:16.19    \nframe=   77 fps=0.4 q=42.3 size=    2304KiB time=00:00:02.50 bitrate=7549.9kbits/s speed=0.0127x elapsed=0:03:16.71    \nframe=   77 fps=0.4 q=42.3 size=    2304KiB time=00:00:02.50 bitrate=7549.9kbits/s speed=0.0127x elapsed=0:03:17.22    \nframe=   78 fps=0.4 q=43.7 size=    2560KiB time=00:00:02.53 bitrate=8278.4kbits/s speed=0.0128x elapsed=0:03:17.74    \nframe=   78 fps=0.4 q=43.7 size=    2560KiB time=00:00:02.53 bitrate=8278.4kbits/s speed=0.0128x elapsed=0:03:18.25    \nframe=   78 fps=0.4 q=43.7 size=    2560KiB time=00:00:02.53 bitrate=8278.4kbits/s speed=0.0127x elapsed=0:03:18.76    \nframe=   79 fps=0.4 q=43.8 size=    2560KiB time=00:00:02.56 bitrate=8170.9kbits/s speed=0.0129x elapsed=0:03:19.28    \nframe=   80 fps=0.4 q=43.8 size=    2560KiB time=00:00:02.60 bitrate=8066.1kbits/s speed=0.013x elapsed=0:03:19.79    \nframe=   80 fps=0.4 q=43.8 size=    2560KiB time=00:00:02.60 bitrate=8066.1kbits/s speed=0.013x elapsed=0:03:20.31    \nframe=   80 fps=0.4 q=43.8 size=    2560KiB time=00:00:02.60 bitrate=8066.1kbits/s speed=0.0129x elapsed=0:03:20.83    \nframe=   80 fps=0.4 q=43.8 size=    2560KiB time=00:00:02.60 bitrate=8066.1kbits/s speed=0.0129x elapsed=0:03:21.35    \nframe=   81 fps=0.4 q=38.7 size=    2560KiB time=00:00:02.63 bitrate=7964.0kbits/s speed=0.013x elapsed=0:03:21.86    \nframe=   81 fps=0.4 q=38.7 size=    2560KiB time=00:00:02.63 bitrate=7964.0kbits/s speed=0.013x elapsed=0:03:22.37    \nframe=   81 fps=0.4 q=38.7 size=    2560KiB time=00:00:02.63 bitrate=7964.0kbits/s speed=0.013x elapsed=0:03:22.91    \nframe=   81 fps=0.4 q=38.7 size=    2560KiB time=00:00:02.63 bitrate=7964.0kbits/s speed=0.0129x elapsed=0:03:23.46    \nframe=   81 fps=0.4 q=38.7 size=    2560KiB time=00:00:02.63 bitrate=7964.0kbits/s speed=0.0129x elapsed=0:03:24.00    \nframe=   81 fps=0.4 q=38.7 size=    2560KiB time=00:00:02.63 bitrate=7964.0kbits/s speed=0.0129x elapsed=0:03:24.53    \nframe=   81 fps=0.4 q=38.7 size=    2560KiB time=00:00:02.63 bitrate=7964.0kbits/s speed=0.0128x elapsed=0:03:25.03    \nframe=   82 fps=0.4 q=40.9 size=    2560KiB time=00:00:02.66 bitrate=7864.5kbits/s speed=0.013x elapsed=0:03:25.55    \nframe=   82 fps=0.4 q=40.9 size=    2560KiB time=00:00:02.66 bitrate=7864.5kbits/s speed=0.0129x elapsed=0:03:26.07    \nframe=   82 fps=0.4 q=40.9 size=    2560KiB time=00:00:02.66 bitrate=7864.5kbits/s speed=0.0129x elapsed=0:03:26.58    \nframe=   82 fps=0.4 q=40.9 size=    2560KiB time=00:00:02.66 bitrate=7864.5kbits/s speed=0.0129x elapsed=0:03:27.10    \nframe=   82 fps=0.4 q=40.9 size=    2560KiB time=00:00:02.66 bitrate=7864.5kbits/s speed=0.0128x elapsed=0:03:27.65    \nframe=   83 fps=0.4 q=43.4 size=    2560KiB time=00:00:02.70 bitrate=7767.4kbits/s speed=0.013x elapsed=0:03:28.18    \nframe=   84 fps=0.4 q=43.1 size=    2560KiB time=00:00:02.73 bitrate=7672.6kbits/s speed=0.0131x elapsed=0:03:28.68    \nframe=   84 fps=0.4 q=43.1 size=    2560KiB time=00:00:02.73 bitrate=7672.6kbits/s speed=0.0131x elapsed=0:03:29.20    \nframe=   84 fps=0.4 q=43.1 size=    2560KiB time=00:00:02.73 bitrate=7672.6kbits/s speed=0.013x elapsed=0:03:29.72    \nframe=   84 fps=0.4 q=43.1 size=    2560KiB time=00:00:02.73 bitrate=7672.6kbits/s speed=0.013x elapsed=0:03:30.23    \nframe=   84 fps=0.4 q=43.1 size=    2560KiB time=00:00:02.73 bitrate=7672.6kbits/s speed=0.013x elapsed=0:03:30.76    \nframe=   84 fps=0.4 q=43.1 size=    2560KiB time=00:00:02.73 bitrate=7672.6kbits/s speed=0.0129x elapsed=0:03:31.27    \nframe=   84 fps=0.4 q=43.1 size=    2560KiB time=00:00:02.73 bitrate=7672.6kbits/s speed=0.0129x elapsed=0:03:31.78    \nframe=   84 fps=0.4 q=43.1 size=    2560KiB time=00:00:02.73 bitrate=7672.6kbits/s speed=0.0129x elapsed=0:03:32.30    \nframe=   85 fps=0.4 q=38.3 size=    2560KiB time=00:00:02.76 bitrate=7580.2kbits/s speed=0.013x elapsed=0:03:32.84    \nframe=   85 fps=0.4 q=38.3 size=    2560KiB time=00:00:02.76 bitrate=7580.2kbits/s speed=0.013x elapsed=0:03:33.36    \nframe=   85 fps=0.4 q=38.3 size=    2560KiB time=00:00:02.76 bitrate=7580.2kbits/s speed=0.0129x elapsed=0:03:33.88    \nframe=   85 fps=0.4 q=38.3 size=    2560KiB time=00:00:02.76 bitrate=7580.2kbits/s speed=0.0129x elapsed=0:03:34.42    \nframe=   85 fps=0.4 q=38.3 size=    2560KiB time=00:00:02.76 bitrate=7580.2kbits/s speed=0.0129x elapsed=0:03:34.95    \nframe=   85 fps=0.4 q=38.3 size=    2560KiB time=00:00:02.76 bitrate=7580.2kbits/s speed=0.0128x elapsed=0:03:35.51    \nframe=   85 fps=0.4 q=38.3 size=    2560KiB time=00:00:02.76 bitrate=7580.2kbits/s speed=0.0128x elapsed=0:03:36.03    \nframe=   85 fps=0.4 q=38.3 size=    2560KiB time=00:00:02.76 bitrate=7580.2kbits/s speed=0.0128x elapsed=0:03:36.55    \nframe=   85 fps=0.4 q=38.3 size=    2560KiB time=00:00:02.76 bitrate=7580.2kbits/s speed=0.0127x elapsed=0:03:37.08    \nframe=   85 fps=0.4 q=38.3 size=    2560KiB time=00:00:02.76 bitrate=7580.2kbits/s speed=0.0127x elapsed=0:03:37.65    \nframe=   85 fps=0.4 q=38.3 size=    2560KiB time=00:00:02.76 bitrate=7580.2kbits/s speed=0.0127x elapsed=0:03:38.16    \nframe=   86 fps=0.4 q=39.9 size=    2560KiB time=00:00:02.80 bitrate=7490.0kbits/s speed=0.0128x elapsed=0:03:38.68    \nframe=   86 fps=0.4 q=39.9 size=    2560KiB time=00:00:02.80 bitrate=7490.0kbits/s speed=0.0128x elapsed=0:03:39.21    \nframe=   86 fps=0.4 q=39.9 size=    2560KiB time=00:00:02.80 bitrate=7490.0kbits/s speed=0.0127x elapsed=0:03:39.75    \nframe=   86 fps=0.4 q=39.9 size=    2560KiB time=00:00:02.80 bitrate=7490.0kbits/s speed=0.0127x elapsed=0:03:40.27    \nframe=   86 fps=0.4 q=39.9 size=    2560KiB time=00:00:02.80 bitrate=7490.0kbits/s speed=0.0127x elapsed=0:03:40.79    \nframe=   86 fps=0.4 q=39.9 size=    2560KiB time=00:00:02.80 bitrate=7490.0kbits/s speed=0.0127x elapsed=0:03:41.30    \nframe=   86 fps=0.4 q=39.9 size=    2560KiB time=00:00:02.80 bitrate=7490.0kbits/s speed=0.0126x elapsed=0:03:41.84    \nframe=   86 fps=0.4 q=39.9 size=    2560KiB time=00:00:02.80 bitrate=7490.0kbits/s speed=0.0126x elapsed=0:03:42.37    \nframe=   87 fps=0.4 q=43.3 size=    2816KiB time=00:00:02.83 bitrate=8142.0kbits/s speed=0.0127x elapsed=0:03:42.88    \nframe=   88 fps=0.4 q=43.2 size=    2816KiB time=00:00:02.86 bitrate=8047.3kbits/s speed=0.0128x elapsed=0:03:43.40    \nframe=   89 fps=0.4 q=43.1 size=    2816KiB time=00:00:02.90 bitrate=7954.8kbits/s speed=0.013x elapsed=0:03:43.91    \nframe=   89 fps=0.4 q=43.1 size=    2816KiB time=00:00:02.90 bitrate=7954.8kbits/s speed=0.0129x elapsed=0:03:44.43    \nframe=   89 fps=0.4 q=43.1 size=    2816KiB time=00:00:02.90 bitrate=7954.8kbits/s speed=0.0129x elapsed=0:03:44.94    \nframe=   89 fps=0.4 q=43.1 size=    2816KiB time=00:00:02.90 bitrate=7954.8kbits/s speed=0.0129x elapsed=0:03:45.47    \nframe=   89 fps=0.4 q=43.1 size=    2816KiB time=00:00:02.90 bitrate=7954.8kbits/s speed=0.0128x elapsed=0:03:45.99    \nframe=   90 fps=0.4 q=38.5 size=    2816KiB time=00:00:02.93 bitrate=7864.4kbits/s speed=0.0129x elapsed=0:03:46.52    \nframe=   90 fps=0.4 q=38.5 size=    2816KiB time=00:00:02.93 bitrate=7864.4kbits/s speed=0.0129x elapsed=0:03:47.04    \nframe=   90 fps=0.4 q=38.5 size=    2816KiB time=00:00:02.93 bitrate=7864.4kbits/s speed=0.0129x elapsed=0:03:47.55    \nframe=   91 fps=0.4 q=40.8 size=    2816KiB time=00:00:02.96 bitrate=7776.1kbits/s speed=0.013x elapsed=0:03:48.07    \nframe=   91 fps=0.4 q=40.8 size=    2816KiB time=00:00:02.96 bitrate=7776.1kbits/s speed=0.013x elapsed=0:03:48.61    \nframe=   91 fps=0.4 q=40.8 size=    2816KiB time=00:00:02.96 bitrate=7776.1kbits/s speed=0.0129x elapsed=0:03:49.17    \nframe=   91 fps=0.4 q=40.8 size=    2816KiB time=00:00:02.96 bitrate=7776.1kbits/s speed=0.0129x elapsed=0:03:49.70    \nframe=   91 fps=0.4 q=40.8 size=    2816KiB time=00:00:02.96 bitrate=7776.1kbits/s speed=0.0129x elapsed=0:03:50.22    \nframe=   92 fps=0.4 q=43.1 size=    2816KiB time=00:00:03.00 bitrate=7689.7kbits/s speed=0.013x elapsed=0:03:50.74    \nframe=   93 fps=0.4 q=43.0 size=    2816KiB time=00:00:03.03 bitrate=7605.2kbits/s speed=0.0131x elapsed=0:03:51.25    \nframe=   93 fps=0.4 q=43.0 size=    2816KiB time=00:00:03.03 bitrate=7605.2kbits/s speed=0.0131x elapsed=0:03:51.79    \nframe=   93 fps=0.4 q=43.0 size=    2816KiB time=00:00:03.03 bitrate=7605.2kbits/s speed=0.0131x elapsed=0:03:52.33    \nframe=   93 fps=0.4 q=43.0 size=    2816KiB time=00:00:03.03 bitrate=7605.2kbits/s speed=0.013x elapsed=0:03:52.85    \nframe=   93 fps=0.4 q=43.0 size=    2816KiB time=00:00:03.03 bitrate=7605.2kbits/s speed=0.013x elapsed=0:03:53.37    \nframe=   93 fps=0.4 q=43.0 size=    2816KiB time=00:00:03.03 bitrate=7605.2kbits/s speed=0.013x elapsed=0:03:53.87    \nframe=   93 fps=0.4 q=43.0 size=    2816KiB time=00:00:03.03 bitrate=7605.2kbits/s speed=0.0129x elapsed=0:03:54.40    \nframe=   94 fps=0.4 q=38.6 size=    2816KiB time=00:00:03.06 bitrate=7522.5kbits/s speed=0.0131x elapsed=0:03:54.95    \nframe=   94 fps=0.4 q=38.6 size=    2816KiB time=00:00:03.06 bitrate=7522.5kbits/s speed=0.013x elapsed=0:03:55.48    \nframe=   94 fps=0.4 q=38.6 size=    2816KiB time=00:00:03.06 bitrate=7522.5kbits/s speed=0.013x elapsed=0:03:56.04    \nframe=   94 fps=0.4 q=38.6 size=    2816KiB time=00:00:03.06 bitrate=7522.5kbits/s speed=0.013x elapsed=0:03:56.58    \nframe=   95 fps=0.4 q=40.6 size=    3072KiB time=00:00:03.10 bitrate=8118.1kbits/s speed=0.0131x elapsed=0:03:57.09    \nframe=   95 fps=0.4 q=40.6 size=    3072KiB time=00:00:03.10 bitrate=8118.1kbits/s speed=0.013x elapsed=0:03:57.61    \nframe=   95 fps=0.4 q=40.6 size=    3072KiB time=00:00:03.10 bitrate=8118.1kbits/s speed=0.013x elapsed=0:03:58.13    \nframe=   95 fps=0.4 q=40.6 size=    3072KiB time=00:00:03.10 bitrate=8118.1kbits/s speed=0.013x elapsed=0:03:58.66    \nframe=   95 fps=0.4 q=40.6 size=    3072KiB time=00:00:03.10 bitrate=8118.1kbits/s speed=0.013x elapsed=0:03:59.20    \nframe=   96 fps=0.4 q=42.9 size=    3072KiB time=00:00:03.13 bitrate=8031.8kbits/s speed=0.0131x elapsed=0:03:59.76    \nframe=   96 fps=0.4 q=42.9 size=    3072KiB time=00:00:03.13 bitrate=8031.8kbits/s speed=0.013x elapsed=0:04:00.29    \nframe=   96 fps=0.4 q=42.9 size=    3072KiB time=00:00:03.13 bitrate=8031.8kbits/s speed=0.013x elapsed=0:04:00.88    \nframe=   96 fps=0.4 q=42.9 size=    3072KiB time=00:00:03.13 bitrate=8031.8kbits/s speed=0.013x elapsed=0:04:01.44    \nframe=   96 fps=0.4 q=42.9 size=    3072KiB time=00:00:03.13 bitrate=8031.8kbits/s speed=0.0129x elapsed=0:04:02.02    \nframe=   96 fps=0.4 q=42.9 size=    3072KiB time=00:00:03.13 bitrate=8031.8kbits/s speed=0.0129x elapsed=0:04:02.55    \nframe=   96 fps=0.4 q=42.9 size=    3072KiB time=00:00:03.13 bitrate=8031.8kbits/s speed=0.0129x elapsed=0:04:03.10    \nframe=   97 fps=0.4 q=42.8 size=    3072KiB time=00:00:03.16 bitrate=7947.2kbits/s speed=0.013x elapsed=0:04:03.67    \nframe=   97 fps=0.4 q=42.8 size=    3072KiB time=00:00:03.16 bitrate=7947.2kbits/s speed=0.013x elapsed=0:04:04.20    \nframe=   98 fps=0.4 q=38.4 size=    3072KiB time=00:00:03.16 bitrate=7947.2kbits/s speed=0.0129x elapsed=0:04:04.74    \nframe=   98 fps=0.4 q=38.4 size=    3072KiB time=00:00:03.20 bitrate=7864.4kbits/s speed=0.013x elapsed=0:04:05.31    \nframe=   99 fps=0.4 q=40.6 size=    3072KiB time=00:00:03.23 bitrate=7783.4kbits/s speed=0.0132x elapsed=0:04:05.85    \nframe=   99 fps=0.4 q=40.6 size=    3072KiB time=00:00:03.23 bitrate=7783.4kbits/s speed=0.0131x elapsed=0:04:06.43    \nframe=   99 fps=0.4 q=40.6 size=    3072KiB time=00:00:03.23 bitrate=7783.4kbits/s speed=0.0131x elapsed=0:04:07.01    \nframe=   99 fps=0.4 q=40.6 size=    3072KiB time=00:00:03.23 bitrate=7783.4kbits/s speed=0.0131x elapsed=0:04:07.58    \nframe=   99 fps=0.4 q=40.6 size=    3072KiB time=00:00:03.23 bitrate=7783.4kbits/s speed=0.013x elapsed=0:04:08.10    \nframe=   99 fps=0.4 q=40.6 size=    3072KiB time=00:00:03.23 bitrate=7783.4kbits/s speed=0.013x elapsed=0:04:08.67    \nframe=   99 fps=0.4 q=40.6 size=    3072KiB time=00:00:03.23 bitrate=7783.4kbits/s speed=0.013x elapsed=0:04:09.22    \nframe=   99 fps=0.4 q=40.6 size=    3072KiB time=00:00:03.23 bitrate=7783.4kbits/s speed=0.0129x elapsed=0:04:09.75    \nframe=  100 fps=0.4 q=42.8 size=    3072KiB time=00:00:03.26 bitrate=7703.9kbits/s speed=0.0131x elapsed=0:04:10.30    \nframe=  100 fps=0.4 q=42.8 size=    3072KiB time=00:00:03.26 bitrate=7703.9kbits/s speed=0.013x elapsed=0:04:10.85    \nframe=  100 fps=0.4 q=42.8 size=    3072KiB time=00:00:03.26 bitrate=7703.9kbits/s speed=0.013x elapsed=0:04:11.38    \nframe=  100 fps=0.4 q=42.8 size=    3072KiB time=00:00:03.26 bitrate=7703.9kbits/s speed=0.013x elapsed=0:04:11.93    \nframe=  100 fps=0.4 q=42.8 size=    3072KiB time=00:00:03.26 bitrate=7703.9kbits/s speed=0.0129x elapsed=0:04:12.48    \nframe=  101 fps=0.4 q=42.9 size=    3072KiB time=00:00:03.30 bitrate=7626.1kbits/s speed=0.013x elapsed=0:04:13.01    \nframe=  101 fps=0.4 q=42.9 size=    3072KiB time=00:00:03.30 bitrate=7626.1kbits/s speed=0.013x elapsed=0:04:13.55    \nframe=  101 fps=0.4 q=42.9 size=    3072KiB time=00:00:03.30 bitrate=7626.1kbits/s speed=0.013x elapsed=0:04:14.09    \nframe=  101 fps=0.4 q=42.9 size=    3072KiB time=00:00:03.30 bitrate=7626.1kbits/s speed=0.013x elapsed=0:04:14.61    \nframe=  101 fps=0.4 q=42.9 size=    3072KiB time=00:00:03.30 bitrate=7626.1kbits/s speed=0.0129x elapsed=0:04:15.15    \nframe=  101 fps=0.4 q=42.9 size=    3072KiB time=00:00:03.30 bitrate=7626.1kbits/s speed=0.0129x elapsed=0:04:15.66    \nframe=  101 fps=0.4 q=42.9 size=    3072KiB time=00:00:03.30 bitrate=7626.1kbits/s speed=0.0129x elapsed=0:04:16.18    \nframe=  101 fps=0.4 q=42.9 size=    3072KiB time=00:00:03.30 bitrate=7626.1kbits/s speed=0.0129x elapsed=0:04:16.71    \nframe=  101 fps=0.4 q=42.9 size=    3072KiB time=00:00:03.30 bitrate=7626.1kbits/s speed=0.0128x elapsed=0:04:17.29    \nframe=  101 fps=0.4 q=42.9 size=    3072KiB time=00:00:03.30 bitrate=7626.1kbits/s speed=0.0128x elapsed=0:04:17.81    \nframe=  102 fps=0.4 q=38.3 size=    3072KiB time=00:00:03.33 bitrate=7549.9kbits/s speed=0.0129x elapsed=0:04:18.33    \nframe=  102 fps=0.4 q=38.3 size=    3072KiB time=00:00:03.33 bitrate=7549.9kbits/s speed=0.0129x elapsed=0:04:18.86    \nframe=  102 fps=0.4 q=38.3 size=    3072KiB time=00:00:03.33 bitrate=7549.9kbits/s speed=0.0129x elapsed=0:04:19.39    \nframe=  102 fps=0.4 q=38.3 size=    3072KiB time=00:00:03.33 bitrate=7549.9kbits/s speed=0.0128x elapsed=0:04:19.91    \nframe=  102 fps=0.4 q=38.3 size=    3072KiB time=00:00:03.33 bitrate=7549.9kbits/s speed=0.0128x elapsed=0:04:20.47    \nframe=  102 fps=0.4 q=38.3 size=    3072KiB time=00:00:03.33 bitrate=7549.9kbits/s speed=0.0128x elapsed=0:04:21.01    \nframe=  102 fps=0.4 q=38.3 size=    3072KiB time=00:00:03.33 bitrate=7549.9kbits/s speed=0.0127x elapsed=0:04:21.53    \nframe=  103 fps=0.4 q=40.6 size=    3328KiB time=00:00:03.36 bitrate=8098.0kbits/s speed=0.0128x elapsed=0:04:22.04    \nframe=  103 fps=0.4 q=40.6 size=    3328KiB time=00:00:03.36 bitrate=8098.0kbits/s speed=0.0128x elapsed=0:04:22.57    \nframe=  103 fps=0.4 q=40.6 size=    3328KiB time=00:00:03.36 bitrate=8098.0kbits/s speed=0.0128x elapsed=0:04:23.10    \nframe=  103 fps=0.4 q=40.6 size=    3328KiB time=00:00:03.36 bitrate=8098.0kbits/s speed=0.0128x elapsed=0:04:23.66    \nframe=  103 fps=0.4 q=40.6 size=    3328KiB time=00:00:03.36 bitrate=8098.0kbits/s speed=0.0127x elapsed=0:04:24.17    \nframe=  103 fps=0.4 q=40.6 size=    3328KiB time=00:00:03.36 bitrate=8098.0kbits/s speed=0.0127x elapsed=0:04:24.69    \nframe=  103 fps=0.4 q=40.6 size=    3328KiB time=00:00:03.36 bitrate=8098.0kbits/s speed=0.0127x elapsed=0:04:25.21    \nframe=  104 fps=0.4 q=43.0 size=    3328KiB time=00:00:03.40 bitrate=8018.6kbits/s speed=0.0128x elapsed=0:04:25.77    \nframe=  104 fps=0.4 q=43.0 size=    3328KiB time=00:00:03.40 bitrate=8018.6kbits/s speed=0.0128x elapsed=0:04:26.31    \nframe=  104 fps=0.4 q=43.0 size=    3328KiB time=00:00:03.40 bitrate=8018.6kbits/s speed=0.0127x elapsed=0:04:26.87    \nframe=  105 fps=0.4 q=43.0 size=    3328KiB time=00:00:03.43 bitrate=7940.8kbits/s speed=0.0128x elapsed=0:04:27.42    \nframe=  105 fps=0.4 q=43.0 size=    3328KiB time=00:00:03.43 bitrate=7940.8kbits/s speed=0.0128x elapsed=0:04:27.96    \nframe=  105 fps=0.4 q=43.0 size=    3328KiB time=00:00:03.43 bitrate=7940.8kbits/s speed=0.0128x elapsed=0:04:28.49    \nframe=  105 fps=0.4 q=43.0 size=    3328KiB time=00:00:03.43 bitrate=7940.8kbits/s speed=0.0128x elapsed=0:04:29.00    \nframe=  105 fps=0.4 q=43.0 size=    3328KiB time=00:00:03.43 bitrate=7940.8kbits/s speed=0.0127x elapsed=0:04:29.51    \nframe=  106 fps=0.4 q=38.1 size=    3328KiB time=00:00:03.46 bitrate=7864.4kbits/s speed=0.0128x elapsed=0:04:30.06    \nframe=  106 fps=0.4 q=38.1 size=    3328KiB time=00:00:03.46 bitrate=7864.4kbits/s speed=0.0128x elapsed=0:04:30.60    \nframe=  106 fps=0.4 q=38.1 size=    3328KiB time=00:00:03.46 bitrate=7864.4kbits/s speed=0.0128x elapsed=0:04:31.15    \nframe=  106 fps=0.4 q=38.1 size=    3328KiB time=00:00:03.46 bitrate=7864.4kbits/s speed=0.0128x elapsed=0:04:31.70    \nframe=  106 fps=0.4 q=38.1 size=    3328KiB time=00:00:03.46 bitrate=7864.4kbits/s speed=0.0127x elapsed=0:04:32.23    \nframe=  107 fps=0.4 q=40.5 size=    3328KiB time=00:00:03.50 bitrate=7789.5kbits/s speed=0.0128x elapsed=0:04:32.74    \nframe=  107 fps=0.4 q=40.5 size=    3328KiB time=00:00:03.50 bitrate=7789.5kbits/s speed=0.0128x elapsed=0:04:33.29    \nframe=  107 fps=0.4 q=40.5 size=    3328KiB time=00:00:03.50 bitrate=7789.5kbits/s speed=0.0128x elapsed=0:04:33.82    \nframe=  107 fps=0.4 q=40.5 size=    3328KiB time=00:00:03.50 bitrate=7789.5kbits/s speed=0.0128x elapsed=0:04:34.34    \nframe=  107 fps=0.4 q=40.5 size=    3328KiB time=00:00:03.50 bitrate=7789.5kbits/s speed=0.0127x elapsed=0:04:34.88    \nframe=  107 fps=0.4 q=40.5 size=    3328KiB time=00:00:03.50 bitrate=7789.5kbits/s speed=0.0127x elapsed=0:04:35.39    \nframe=  107 fps=0.4 q=40.5 size=    3328KiB time=00:00:03.50 bitrate=7789.5kbits/s speed=0.0127x elapsed=0:04:35.94    \nframe=  108 fps=0.4 q=42.8 size=    3328KiB time=00:00:03.53 bitrate=7716.0kbits/s speed=0.0128x elapsed=0:04:36.46    \nframe=  108 fps=0.4 q=42.8 size=    3328KiB time=00:00:03.53 bitrate=7716.0kbits/s speed=0.0128x elapsed=0:04:36.98    \nframe=  109 fps=0.4 q=42.8 size=    3328KiB time=00:00:03.56 bitrate=7643.9kbits/s speed=0.0129x elapsed=0:04:37.53    \nframe=  110 fps=0.4 q=38.3 size=    3328KiB time=00:00:03.60 bitrate=7573.1kbits/s speed=0.0129x elapsed=0:04:38.07    \nframe=  110 fps=0.4 q=38.3 size=    3328KiB time=00:00:03.60 bitrate=7573.1kbits/s speed=0.0129x elapsed=0:04:38.61    \nframe=  110 fps=0.4 q=38.3 size=    3328KiB time=00:00:03.60 bitrate=7573.1kbits/s speed=0.0129x elapsed=0:04:39.15    \nframe=  110 fps=0.4 q=38.3 size=    3328KiB time=00:00:03.60 bitrate=7573.1kbits/s speed=0.0129x elapsed=0:04:39.67    \nframe=  110 fps=0.4 q=38.3 size=    3328KiB time=00:00:03.60 bitrate=7573.1kbits/s speed=0.0128x elapsed=0:04:40.19    \nframe=  110 fps=0.4 q=38.3 size=    3328KiB time=00:00:03.60 bitrate=7573.1kbits/s speed=0.0128x elapsed=0:04:40.72    \nframe=  110 fps=0.4 q=38.3 size=    3328KiB time=00:00:03.60 bitrate=7573.1kbits/s speed=0.0128x elapsed=0:04:41.28    \nframe=  111 fps=0.4 q=40.3 size=    3584KiB time=00:00:03.63 bitrate=8080.9kbits/s speed=0.0129x elapsed=0:04:41.81    \nframe=  111 fps=0.4 q=40.3 size=    3584KiB time=00:00:03.63 bitrate=8080.9kbits/s speed=0.0129x elapsed=0:04:42.33    \nframe=  111 fps=0.4 q=40.3 size=    3584KiB time=00:00:03.63 bitrate=8080.9kbits/s speed=0.0128x elapsed=0:04:42.86    \nframe=  111 fps=0.4 q=40.3 size=    3584KiB time=00:00:03.63 bitrate=8080.9kbits/s speed=0.0128x elapsed=0:04:43.38    \nframe=  111 fps=0.4 q=40.3 size=    3584KiB time=00:00:03.63 bitrate=8080.9kbits/s speed=0.0128x elapsed=0:04:43.89    \nframe=  112 fps=0.4 q=42.9 size=    3584KiB time=00:00:03.66 bitrate=8007.4kbits/s speed=0.0129x elapsed=0:04:44.42    \nframe=  112 fps=0.4 q=42.9 size=    3584KiB time=00:00:03.66 bitrate=8007.4kbits/s speed=0.0129x elapsed=0:04:44.96    \nframe=  113 fps=0.4 q=42.5 size=    3584KiB time=00:00:03.70 bitrate=7935.3kbits/s speed=0.013x elapsed=0:04:45.48    \nframe=  113 fps=0.4 q=42.5 size=    3584KiB time=00:00:03.70 bitrate=7935.3kbits/s speed=0.0129x elapsed=0:04:46.01    \nframe=  113 fps=0.4 q=42.5 size=    3584KiB time=00:00:03.70 bitrate=7935.3kbits/s speed=0.0129x elapsed=0:04:46.56    \nframe=  114 fps=0.4 q=38.2 size=    3584KiB time=00:00:03.73 bitrate=7864.4kbits/s speed=0.013x elapsed=0:04:47.10    \nframe=  114 fps=0.4 q=38.2 size=    3584KiB time=00:00:03.73 bitrate=7864.4kbits/s speed=0.013x elapsed=0:04:47.62    \nframe=  114 fps=0.4 q=38.2 size=    3584KiB time=00:00:03.73 bitrate=7864.4kbits/s speed=0.013x elapsed=0:04:48.16    \nframe=  114 fps=0.4 q=38.2 size=    3584KiB time=00:00:03.73 bitrate=7864.4kbits/s speed=0.0129x elapsed=0:04:48.68    \nframe=  114 fps=0.4 q=38.2 size=    3584KiB time=00:00:03.73 bitrate=7864.4kbits/s speed=0.0129x elapsed=0:04:49.20    \nframe=  114 fps=0.4 q=38.2 size=    3584KiB time=00:00:03.73 bitrate=7864.4kbits/s speed=0.0129x elapsed=0:04:49.71    \nframe=  114 fps=0.4 q=38.2 size=    3584KiB time=00:00:03.73 bitrate=7864.4kbits/s speed=0.0129x elapsed=0:04:50.23    \nframe=  114 fps=0.4 q=38.2 size=    3584KiB time=00:00:03.73 bitrate=7864.4kbits/s speed=0.0128x elapsed=0:04:50.76    \nframe=  114 fps=0.4 q=38.2 size=    3584KiB time=00:00:03.73 bitrate=7864.4kbits/s speed=0.0128x elapsed=0:04:51.27    \nframe=  115 fps=0.4 q=40.4 size=    3584KiB time=00:00:03.76 bitrate=7794.8kbits/s speed=0.0129x elapsed=0:04:51.78    \nframe=  115 fps=0.4 q=40.4 size=    3584KiB time=00:00:03.76 bitrate=7794.8kbits/s speed=0.0129x elapsed=0:04:52.31    \nframe=  115 fps=0.4 q=40.4 size=    3584KiB time=00:00:03.76 bitrate=7794.8kbits/s speed=0.0129x elapsed=0:04:52.83    \nframe=  115 fps=0.4 q=40.4 size=    3584KiB time=00:00:03.76 bitrate=7794.8kbits/s speed=0.0128x elapsed=0:04:53.34    \nframe=  115 fps=0.4 q=40.4 size=    3584KiB time=00:00:03.76 bitrate=7794.8kbits/s speed=0.0128x elapsed=0:04:53.86    \nframe=  116 fps=0.4 q=42.9 size=    3584KiB time=00:00:03.80 bitrate=7726.4kbits/s speed=0.0129x elapsed=0:04:54.38    \nframe=  117 fps=0.4 q=42.7 size=    3584KiB time=00:00:03.83 bitrate=7659.3kbits/s speed=0.013x elapsed=0:04:54.90    \nframe=  117 fps=0.4 q=42.7 size=    3584KiB time=00:00:03.83 bitrate=7659.3kbits/s speed=0.013x elapsed=0:04:55.42    \nframe=  117 fps=0.4 q=42.7 size=    3584KiB time=00:00:03.83 bitrate=7659.3kbits/s speed=0.013x elapsed=0:04:55.94    \nframe=  117 fps=0.4 q=42.7 size=    3584KiB time=00:00:03.83 bitrate=7659.3kbits/s speed=0.0129x elapsed=0:04:56.47    \nframe=  117 fps=0.4 q=42.7 size=    3584KiB time=00:00:03.83 bitrate=7659.3kbits/s speed=0.0129x elapsed=0:04:56.98    \nframe=  117 fps=0.4 q=42.7 size=    3584KiB time=00:00:03.83 bitrate=7659.3kbits/s speed=0.0129x elapsed=0:04:57.51    \nframe=  118 fps=0.4 q=38.2 size=    3584KiB time=00:00:03.86 bitrate=7593.2kbits/s speed=0.013x elapsed=0:04:58.03    \nframe=  118 fps=0.4 q=38.2 size=    3584KiB time=00:00:03.86 bitrate=7593.2kbits/s speed=0.013x elapsed=0:04:58.55    \nframe=  118 fps=0.4 q=38.2 size=    3584KiB time=00:00:03.86 bitrate=7593.2kbits/s speed=0.0129x elapsed=0:04:59.11    \nframe=  118 fps=0.4 q=38.2 size=    3584KiB time=00:00:03.86 bitrate=7593.2kbits/s speed=0.0129x elapsed=0:04:59.66    \nframe=  118 fps=0.4 q=38.2 size=    3584KiB time=00:00:03.86 bitrate=7593.2kbits/s speed=0.0129x elapsed=0:05:00.17    \nframe=  118 fps=0.4 q=38.2 size=    3584KiB time=00:00:03.86 bitrate=7593.2kbits/s speed=0.0129x elapsed=0:05:00.69    \nframe=  118 fps=0.4 q=38.2 size=    3584KiB time=00:00:03.86 bitrate=7593.2kbits/s speed=0.0128x elapsed=0:05:01.20    \nframe=  119 fps=0.4 q=40.2 size=    3840KiB time=00:00:03.90 bitrate=8066.1kbits/s speed=0.0129x elapsed=0:05:01.72    \nframe=  119 fps=0.4 q=40.2 size=    3840KiB time=00:00:03.90 bitrate=8066.1kbits/s speed=0.0129x elapsed=0:05:02.25    \nframe=  119 fps=0.4 q=40.2 size=    3840KiB time=00:00:03.90 bitrate=8066.1kbits/s speed=0.0129x elapsed=0:05:02.80    \nframe=  120 fps=0.4 q=42.9 size=    3840KiB time=00:00:03.93 bitrate=7997.7kbits/s speed=0.013x elapsed=0:05:03.39    \nframe=  121 fps=0.4 q=42.8 size=    3840KiB time=00:00:03.96 bitrate=7930.5kbits/s speed=0.0131x elapsed=0:05:03.94    \nframe=  121 fps=0.4 q=42.8 size=    3840KiB time=00:00:03.96 bitrate=7930.5kbits/s speed=0.013x elapsed=0:05:04.47    \nframe=  121 fps=0.4 q=42.8 size=    3840KiB time=00:00:03.96 bitrate=7930.5kbits/s speed=0.013x elapsed=0:05:04.99    \nframe=  121 fps=0.4 q=42.8 size=    3840KiB time=00:00:03.96 bitrate=7930.5kbits/s speed=0.013x elapsed=0:05:05.57    \nframe=  121 fps=0.4 q=42.8 size=    3840KiB time=00:00:03.96 bitrate=7930.5kbits/s speed=0.013x elapsed=0:05:06.08    \nframe=  121 fps=0.4 q=42.8 size=    3840KiB time=00:00:03.96 bitrate=7930.5kbits/s speed=0.0129x elapsed=0:05:06.61    \nframe=  122 fps=0.4 q=38.2 size=    3840KiB time=00:00:04.00 bitrate=7864.4kbits/s speed=0.013x elapsed=0:05:07.14    \nframe=  122 fps=0.4 q=38.2 size=    3840KiB time=00:00:04.00 bitrate=7864.4kbits/s speed=0.013x elapsed=0:05:07.66    \nframe=  122 fps=0.4 q=38.2 size=    3840KiB time=00:00:04.00 bitrate=7864.4kbits/s speed=0.013x elapsed=0:05:08.18    \nframe=  122 fps=0.4 q=38.2 size=    3840KiB time=00:00:04.00 bitrate=7864.4kbits/s speed=0.013x elapsed=0:05:08.69    \nframe=  122 fps=0.4 q=38.2 size=    3840KiB time=00:00:04.00 bitrate=7864.4kbits/s speed=0.0129x elapsed=0:05:09.25    \nframe=  123 fps=0.4 q=40.2 size=    3840KiB time=00:00:04.03 bitrate=7799.4kbits/s speed=0.013x elapsed=0:05:09.77    \nframe=  123 fps=0.4 q=40.2 size=    3840KiB time=00:00:04.03 bitrate=7799.4kbits/s speed=0.013x elapsed=0:05:10.30    \nframe=  123 fps=0.4 q=40.2 size=    3840KiB time=00:00:04.03 bitrate=7799.4kbits/s speed=0.013x elapsed=0:05:10.82    \nframe=  123 fps=0.4 q=40.2 size=    3840KiB time=00:00:04.03 bitrate=7799.4kbits/s speed=0.013x elapsed=0:05:11.36    \nframe=  125 fps=0.4 q=42.9 size=    3840KiB time=00:00:04.10 bitrate=7672.6kbits/s speed=0.0131x elapsed=0:05:11.90    \nframe=  126 fps=0.4 q=38.3 size=    3840KiB time=00:00:04.13 bitrate=7610.7kbits/s speed=0.0132x elapsed=0:05:12.41    \nframe=  126 fps=0.4 q=38.3 size=    3840KiB time=00:00:04.13 bitrate=7610.7kbits/s speed=0.0132x elapsed=0:05:12.92    \nframe=  126 fps=0.4 q=38.3 size=    3840KiB time=00:00:04.13 bitrate=7610.7kbits/s speed=0.0132x elapsed=0:05:13.45    \nframe=  127 fps=0.4 q=40.2 size=    4096KiB time=00:00:04.16 bitrate=8053.1kbits/s speed=0.0133x elapsed=0:05:13.97    \nframe=  127 fps=0.4 q=40.2 size=    4096KiB time=00:00:04.16 bitrate=8053.1kbits/s speed=0.0132x elapsed=0:05:14.49    \nframe=  127 fps=0.4 q=40.2 size=    4096KiB time=00:00:04.16 bitrate=8053.1kbits/s speed=0.0132x elapsed=0:05:15.03    \nframe=  128 fps=0.4 q=42.9 size=    4096KiB time=00:00:04.20 bitrate=7989.2kbits/s speed=0.0133x elapsed=0:05:15.54    \nframe=  129 fps=0.4 q=42.4 size=    4096KiB time=00:00:04.23 bitrate=7926.3kbits/s speed=0.0134x elapsed=0:05:16.07    \nframe=  129 fps=0.4 q=42.4 size=    4096KiB time=00:00:04.23 bitrate=7926.3kbits/s speed=0.0134x elapsed=0:05:16.59    \nframe=  129 fps=0.4 q=42.4 size=    4096KiB time=00:00:04.23 bitrate=7926.3kbits/s speed=0.0133x elapsed=0:05:17.11    \nframe=  130 fps=0.4 q=37.9 size=    4096KiB time=00:00:04.26 bitrate=7864.4kbits/s speed=0.0134x elapsed=0:05:17.64    \nframe=  130 fps=0.4 q=37.9 size=    4096KiB time=00:00:04.26 bitrate=7864.4kbits/s speed=0.0134x elapsed=0:05:18.17    \nframe=  130 fps=0.4 q=37.9 size=    4096KiB time=00:00:04.26 bitrate=7864.4kbits/s speed=0.0134x elapsed=0:05:18.72    \nframe=  130 fps=0.4 q=37.9 size=    4096KiB time=00:00:04.26 bitrate=7864.4kbits/s speed=0.0134x elapsed=0:05:19.26    \nframe=  130 fps=0.4 q=37.9 size=    4096KiB time=00:00:04.26 bitrate=7864.4kbits/s speed=0.0133x elapsed=0:05:19.83    \nframe=  130 fps=0.4 q=37.9 size=    4096KiB time=00:00:04.26 bitrate=7864.4kbits/s speed=0.0133x elapsed=0:05:20.40    \nframe=  131 fps=0.4 q=40.4 size=    4096KiB time=00:00:04.30 bitrate=7803.4kbits/s speed=0.0134x elapsed=0:05:20.97    \nframe=  131 fps=0.4 q=40.4 size=    4096KiB time=00:00:04.30 bitrate=7803.4kbits/s speed=0.0134x elapsed=0:05:21.53    \nframe=  131 fps=0.4 q=40.4 size=    4096KiB time=00:00:04.30 bitrate=7803.4kbits/s speed=0.0134x elapsed=0:05:22.08    \nframe=  131 fps=0.4 q=40.4 size=    4096KiB time=00:00:04.30 bitrate=7803.4kbits/s speed=0.0133x elapsed=0:05:22.61    \nframe=  131 fps=0.4 q=40.4 size=    4096KiB time=00:00:04.30 bitrate=7803.4kbits/s speed=0.0133x elapsed=0:05:23.16    \nframe=  131 fps=0.4 q=40.4 size=    4096KiB time=00:00:04.30 bitrate=7803.4kbits/s speed=0.0133x elapsed=0:05:23.69    \nframe=  132 fps=0.4 q=42.8 size=    4096KiB time=00:00:04.33 bitrate=7743.4kbits/s speed=0.0134x elapsed=0:05:24.21    \nframe=  132 fps=0.4 q=42.8 size=    4096KiB time=00:00:04.33 bitrate=7743.4kbits/s speed=0.0133x elapsed=0:05:24.77    \nframe=  133 fps=0.4 q=42.6 size=    4096KiB time=00:00:04.36 bitrate=7684.3kbits/s speed=0.0134x elapsed=0:05:25.32    \nframe=  134 fps=0.4 q=38.0 size=    4096KiB time=00:00:04.40 bitrate=7626.1kbits/s speed=0.0135x elapsed=0:05:25.86    \nframe=  134 fps=0.4 q=38.0 size=    4096KiB time=00:00:04.40 bitrate=7626.1kbits/s speed=0.0135x elapsed=0:05:26.45    \nframe=  134 fps=0.4 q=38.0 size=    4096KiB time=00:00:04.40 bitrate=7626.1kbits/s speed=0.0135x elapsed=0:05:26.97    \nframe=  134 fps=0.4 q=38.0 size=    4096KiB time=00:00:04.40 bitrate=7626.1kbits/s speed=0.0134x elapsed=0:05:27.48    \nframe=  134 fps=0.4 q=38.0 size=    4096KiB time=00:00:04.40 bitrate=7626.1kbits/s speed=0.0134x elapsed=0:05:28.02    \nframe=  134 fps=0.4 q=38.0 size=    4096KiB time=00:00:04.40 bitrate=7626.1kbits/s speed=0.0134x elapsed=0:05:28.53    \nframe=  134 fps=0.4 q=38.0 size=    4096KiB time=00:00:04.40 bitrate=7626.1kbits/s speed=0.0134x elapsed=0:05:29.08    \nframe=  134 fps=0.4 q=38.0 size=    4096KiB time=00:00:04.40 bitrate=7626.1kbits/s speed=0.0133x elapsed=0:05:29.62    \nframe=  135 fps=0.4 q=40.5 size=    4352KiB time=00:00:04.43 bitrate=8041.8kbits/s speed=0.0134x elapsed=0:05:30.16    \nframe=  135 fps=0.4 q=40.5 size=    4352KiB time=00:00:04.43 bitrate=8041.8kbits/s speed=0.0134x elapsed=0:05:30.68    \nframe=  135 fps=0.4 q=40.5 size=    4352KiB time=00:00:04.43 bitrate=8041.8kbits/s speed=0.0134x elapsed=0:05:31.20    \nframe=  135 fps=0.4 q=40.5 size=    4352KiB time=00:00:04.43 bitrate=8041.8kbits/s speed=0.0134x elapsed=0:05:31.74    \nframe=  135 fps=0.4 q=40.5 size=    4352KiB time=00:00:04.43 bitrate=8041.8kbits/s speed=0.0133x elapsed=0:05:32.27    \nframe=  135 fps=0.4 q=40.5 size=    4352KiB time=00:00:04.43 bitrate=8041.8kbits/s speed=0.0133x elapsed=0:05:32.80    \nframe=  135 fps=0.4 q=40.5 size=    4352KiB time=00:00:04.43 bitrate=8041.8kbits/s speed=0.0133x elapsed=0:05:33.32    \nframe=  135 fps=0.4 q=40.5 size=    4352KiB time=00:00:04.43 bitrate=8041.8kbits/s speed=0.0133x elapsed=0:05:33.84    \nframe=  135 fps=0.4 q=40.5 size=    4352KiB time=00:00:04.43 bitrate=8041.8kbits/s speed=0.0133x elapsed=0:05:34.36    \nframe=  136 fps=0.4 q=42.9 size=    4352KiB time=00:00:04.46 bitrate=7981.8kbits/s speed=0.0133x elapsed=0:05:34.88    \nframe=  137 fps=0.4 q=42.7 size=    4352KiB time=00:00:04.50 bitrate=7922.7kbits/s speed=0.0134x elapsed=0:05:35.40    \nframe=  137 fps=0.4 q=42.7 size=    4352KiB time=00:00:04.50 bitrate=7922.7kbits/s speed=0.0134x elapsed=0:05:35.93    \nframe=  137 fps=0.4 q=42.7 size=    4352KiB time=00:00:04.50 bitrate=7922.7kbits/s speed=0.0134x elapsed=0:05:36.45    \nframe=  138 fps=0.4 q=38.1 size=    4352KiB time=00:00:04.53 bitrate=7864.4kbits/s speed=0.0135x elapsed=0:05:36.96    \nframe=  138 fps=0.4 q=38.1 size=    4352KiB time=00:00:04.53 bitrate=7864.4kbits/s speed=0.0134x elapsed=0:05:37.50    \nframe=  138 fps=0.4 q=38.1 size=    4352KiB time=00:00:04.53 bitrate=7864.4kbits/s speed=0.0134x elapsed=0:05:38.02    \nframe=  138 fps=0.4 q=38.1 size=    4352KiB time=00:00:04.53 bitrate=7864.4kbits/s speed=0.0134x elapsed=0:05:38.57    \nframe=  138 fps=0.4 q=38.1 size=    4352KiB time=00:00:04.53 bitrate=7864.4kbits/s speed=0.0134x elapsed=0:05:39.08    \nframe=  139 fps=0.4 q=40.3 size=    4352KiB time=00:00:04.56 bitrate=7807.0kbits/s speed=0.0134x elapsed=0:05:39.61    \nframe=  139 fps=0.4 q=40.3 size=    4352KiB time=00:00:04.56 bitrate=7807.0kbits/s speed=0.0134x elapsed=0:05:40.13    \nframe=  139 fps=0.4 q=40.3 size=    4352KiB time=00:00:04.56 bitrate=7807.0kbits/s speed=0.0134x elapsed=0:05:40.64    \nframe=  139 fps=0.4 q=40.3 size=    4352KiB time=00:00:04.56 bitrate=7807.0kbits/s speed=0.0134x elapsed=0:05:41.15    \nframe=  139 fps=0.4 q=40.3 size=    4352KiB time=00:00:04.56 bitrate=7807.0kbits/s speed=0.0134x elapsed=0:05:41.68    \nframe=  140 fps=0.4 q=42.6 size=    4352KiB time=00:00:04.60 bitrate=7750.4kbits/s speed=0.0134x elapsed=0:05:42.20    \nframe=  140 fps=0.4 q=42.6 size=    4352KiB time=00:00:04.60 bitrate=7750.4kbits/s speed=0.0134x elapsed=0:05:42.72    \nframe=  140 fps=0.4 q=42.6 size=    4352KiB time=00:00:04.60 bitrate=7750.4kbits/s speed=0.0134x elapsed=0:05:43.25    \nframe=  140 fps=0.4 q=42.6 size=    4352KiB time=00:00:04.60 bitrate=7750.4kbits/s speed=0.0134x elapsed=0:05:43.77    \nframe=  140 fps=0.4 q=42.6 size=    4352KiB time=00:00:04.60 bitrate=7750.4kbits/s speed=0.0134x elapsed=0:05:44.29    \nframe=  140 fps=0.4 q=42.6 size=    4352KiB time=00:00:04.60 bitrate=7750.4kbits/s speed=0.0133x elapsed=0:05:44.81    \nframe=  141 fps=0.4 q=42.7 size=    4352KiB time=00:00:04.63 bitrate=7694.7kbits/s speed=0.0134x elapsed=0:05:45.33    \nframe=  141 fps=0.4 q=42.7 size=    4352KiB time=00:00:04.63 bitrate=7694.7kbits/s speed=0.0134x elapsed=0:05:45.84    \nframe=  141 fps=0.4 q=42.7 size=    4352KiB time=00:00:04.63 bitrate=7694.7kbits/s speed=0.0134x elapsed=0:05:46.36    \nframe=  141 fps=0.4 q=42.7 size=    4352KiB time=00:00:04.63 bitrate=7694.7kbits/s speed=0.0134x elapsed=0:05:46.89    \nframe=  141 fps=0.4 q=42.7 size=    4352KiB time=00:00:04.63 bitrate=7694.7kbits/s speed=0.0133x elapsed=0:05:47.40    \nframe=  141 fps=0.4 q=42.7 size=    4352KiB time=00:00:04.63 bitrate=7694.7kbits/s speed=0.0133x elapsed=0:05:47.93    \nframe=  142 fps=0.4 q=38.2 size=    4352KiB time=00:00:04.66 bitrate=7639.7kbits/s speed=0.0134x elapsed=0:05:48.45    \nframe=  142 fps=0.4 q=38.2 size=    4352KiB time=00:00:04.66 bitrate=7639.7kbits/s speed=0.0134x elapsed=0:05:48.98    \nframe=  142 fps=0.4 q=38.2 size=    4352KiB time=00:00:04.66 bitrate=7639.7kbits/s speed=0.0134x elapsed=0:05:49.50    \nframe=  142 fps=0.4 q=38.2 size=    4352KiB time=00:00:04.66 bitrate=7639.7kbits/s speed=0.0133x elapsed=0:05:50.03    \nframe=  142 fps=0.4 q=38.2 size=    4352KiB time=00:00:04.66 bitrate=7639.7kbits/s speed=0.0133x elapsed=0:05:50.55    \nframe=  143 fps=0.4 q=41.3 size=    4608KiB time=00:00:04.70 bitrate=8031.7kbits/s speed=0.0134x elapsed=0:05:51.08    \nframe=  143 fps=0.4 q=41.3 size=    4608KiB time=00:00:04.70 bitrate=8031.7kbits/s speed=0.0134x elapsed=0:05:51.61    \nframe=  144 fps=0.4 q=42.6 size=    4608KiB time=00:00:04.73 bitrate=7975.2kbits/s speed=0.0134x elapsed=0:05:52.15    \nframe=  144 fps=0.4 q=42.6 size=    4608KiB time=00:00:04.73 bitrate=7975.2kbits/s speed=0.0134x elapsed=0:05:52.67    \nframe=  144 fps=0.4 q=42.6 size=    4608KiB time=00:00:04.73 bitrate=7975.2kbits/s speed=0.0134x elapsed=0:05:53.20    \nframe=  144 fps=0.4 q=42.6 size=    4608KiB time=00:00:04.73 bitrate=7975.2kbits/s speed=0.0134x elapsed=0:05:53.75    \nframe=  144 fps=0.4 q=42.6 size=    4608KiB time=00:00:04.73 bitrate=7975.2kbits/s speed=0.0134x elapsed=0:05:54.28    \nframe=  146 fps=0.4 q=42.8 size=    4608KiB time=00:00:04.80 bitrate=7864.4kbits/s speed=0.0135x elapsed=0:05:54.80    \nframe=  146 fps=0.4 q=42.8 size=    4608KiB time=00:00:04.80 bitrate=7864.4kbits/s speed=0.0135x elapsed=0:05:55.33    \nframe=  146 fps=0.4 q=42.8 size=    4608KiB time=00:00:04.80 bitrate=7864.4kbits/s speed=0.0135x elapsed=0:05:55.88    \nframe=  146 fps=0.4 q=42.8 size=    4608KiB time=00:00:04.80 bitrate=7864.4kbits/s speed=0.0135x elapsed=0:05:56.46    \nframe=  146 fps=0.4 q=42.8 size=    4608KiB time=00:00:04.80 bitrate=7864.4kbits/s speed=0.0134x elapsed=0:05:57.00    \nframe=  146 fps=0.4 q=42.8 size=    4608KiB time=00:00:04.80 bitrate=7864.4kbits/s speed=0.0134x elapsed=0:05:57.51    \nframe=  147 fps=0.4 q=39.6 size=    4608KiB time=00:00:04.83 bitrate=7810.2kbits/s speed=0.0135x elapsed=0:05:58.03    \nframe=  147 fps=0.4 q=39.6 size=    4608KiB time=00:00:04.83 bitrate=7810.2kbits/s speed=0.0135x elapsed=0:05:58.55    \nframe=  147 fps=0.4 q=39.6 size=    4608KiB time=00:00:04.83 bitrate=7810.2kbits/s speed=0.0135x elapsed=0:05:59.06    \nframe=  147 fps=0.4 q=39.6 size=    4608KiB time=00:00:04.83 bitrate=7810.2kbits/s speed=0.0134x elapsed=0:05:59.59    \nframe=  147 fps=0.4 q=39.6 size=    4608KiB time=00:00:04.83 bitrate=7810.2kbits/s speed=0.0134x elapsed=0:06:00.14    \nframe=  147 fps=0.4 q=39.6 size=    4608KiB time=00:00:04.83 bitrate=7810.2kbits/s speed=0.0134x elapsed=0:06:00.67    \nframe=  148 fps=0.4 q=40.2 size=    4608KiB time=00:00:04.86 bitrate=7756.7kbits/s speed=0.0135x elapsed=0:06:01.19    \nframe=  148 fps=0.4 q=40.2 size=    4608KiB time=00:00:04.86 bitrate=7756.7kbits/s speed=0.0135x elapsed=0:06:01.71    \nframe=  148 fps=0.4 q=40.2 size=    4608KiB time=00:00:04.86 bitrate=7756.7kbits/s speed=0.0134x elapsed=0:06:02.27    \nframe=  148 fps=0.4 q=40.2 size=    4608KiB time=00:00:04.86 bitrate=7756.7kbits/s speed=0.0134x elapsed=0:06:02.78    \n[mp4 @ 0000028cd4369740] Starting second pass: moving the moov atom to the beginning of the file\n[out#0/mp4 @ 0000028cd435ab00] video:4828KiB audio:0KiB subtitle:0KiB other streams:0KiB global headers:2KiB muxing overhead: 0.108103%\nframe=  150 fps=0.4 q=42.8 Lsize=    4833KiB time=00:00:04.93 bitrate=8025.1kbits/s speed=0.0136x elapsed=0:06:03.17    \nx265 [info]: frame I:      1, Avg QP:33.21  kb/s: 28194.96\nx265 [info]: frame P:     36, Avg QP:38.42  kb/s: 12774.79\nx265 [info]: frame B:    113, Avg QP:42.36  kb/s: 6178.71 \nx265 [info]: Weighted P-Frames: Y:16.7% UV:11.1%\n\nencoded 150 frames in 362.01s (0.41 fps), 7908.55 kb/s, Avg QP:41.35\n",
  "seconds": 363.72754526138306,
  "probe_out": {}
}